/* XPM */
static char *a2cddfe9e2354263fb9740e2de37e3dcYWYL2WA8srYW5yGu[] = {
/* columns rows colors chars-per-pixel */
"64 64 169 2 ",
"   c #36682B",
".  c #415F3D",
"X  c #5C3F77",
"o  c #5B3F79",
"O  c #603F74",
"+  c #633E7E",
"@  c #455B43",
"#  c #4D574F",
"$  c #4A5B4F",
"%  c #4E4D5C",
"&  c #534F5E",
"*  c #4B5354",
"=  c #4C5950",
"-  c #4F535B",
";  c #515256",
":  c #51525B",
">  c #515B5C",
",  c #554667",
"<  c #534D63",
"1  c #594C65",
"2  c #5C466D",
"3  c #574A69",
"4  c #5A4B6C",
"5  c #544669",
"6  c #555162",
"7  c #575A6A",
"8  c #574670",
"9  c #5D4574",
"0  c #5D4B72",
"q  c #5E437C",
"w  c #5F4B7B",
"e  c #5F5E70",
"r  c #614376",
"t  c #614974",
"y  c #62437C",
"u  c #65487E",
"i  c #645377",
"p  c #5C6061",
"a  c #5C6D61",
"s  c #647A67",
"d  c #696572",
"f  c #6C7970",
"g  c #70747F",
"h  c #737E78",
"j  c #5DBE3D",
"k  c #61BE3E",
"l  c #5DC13D",
"z  c #61C13E",
"x  c #5A9845",
"c  c #629956",
"v  c #5EBE41",
"b  c #5EBB49",
"n  c #63BD44",
"m  c #67B64D",
"M  c #69B74E",
"N  c #65BB4B",
"B  c #69BB4D",
"V  c #65B546",
"C  c #6BAF5A",
"Z  c #70AD5F",
"A  c #6BB554",
"S  c #66BB52",
"D  c #6BBA53",
"F  c #6CB45B",
"G  c #6DB95B",
"H  c #65B554",
"J  c #71B45D",
"K  c #71B858",
"L  c #668468",
"P  c #6B846A",
"I  c #7F9E7D",
"U  c #6FAD60",
"Y  c #74AD65",
"T  c #79AE65",
"R  c #77A76D",
"E  c #7BA76D",
"W  c #76AC6C",
"Q  c #7AAC6B",
"!  c #6EB263",
"~  c #73B263",
"^  c #74B169",
"/  c #79B469",
"(  c #7CA474",
")  c #77AA72",
"_  c #7CAA74",
"`  c #7EA57A",
"'  c #7CA979",
"]  c #78B071",
"[  c #5EC142",
"{  c #62C242",
"}  c #64C249",
"|  c #69C449",
" . c #829C7F",
".. c #80A576",
"X. c #81A976",
"o. c #82A57C",
"O. c #82A97B",
"+. c #643D83",
"@. c #693B86",
"#. c #6D378D",
"$. c #663C8A",
"%. c #6B3B8C",
"&. c #70388F",
"*. c #6F2D97",
"=. c #732E9C",
"-. c #7A2F9E",
";. c #6E3594",
":. c #6C3A93",
">. c #6E349A",
",. c #713495",
"<. c #723996",
"1. c #73339B",
"2. c #78319B",
"3. c #73399B",
"4. c #7726A7",
"5. c #7827A7",
"6. c #762CA5",
"7. c #7B2CA6",
"8. c #7A27AA",
"9. c #762DAA",
"0. c #7B2CAB",
"q. c #7630A6",
"w. c #7531A3",
"e. c #7933A4",
"r. c #7631AB",
"t. c #7A30AB",
"y. c #7A30AC",
"u. c #772CB1",
"i. c #7B2BB1",
"p. c #7D2AB1",
"a. c #7C2CB1",
"s. c #7F30B0",
"d. c #644283",
"f. c #694184",
"g. c #65408A",
"h. c #6A4189",
"j. c #685C82",
"k. c #746E88",
"l. c #767384",
"z. c #787888",
"x. c #802AAA",
"c. c #802AAB",
"v. c #8030AB",
"b. c #822BB2",
"n. c #836599",
"m. c #7E8D84",
"M. c #7D8789",
"N. c #7B8682",
"B. c #7C9A82",
"V. c #7EA381",
"C. c #86898E",
"Z. c #898F8D",
"A. c #80858B",
"S. c #869F84",
"D. c #8A9E87",
"F. c #85928B",
"G. c #869D8B",
"H. c #8A9C8C",
"J. c #8E9397",
"K. c #8C9B93",
"L. c #909497",
"P. c #919B94",
"I. c #92969C",
"U. c #90989A",
"Y. c #84A283",
"T. c #85A389",
"R. c #88A28A",
"E. c #968BAB",
"W. c #9692A1",
/* pixels */
"0.0.0.0.0.0.0.0.0.0.0.0.0.0.0.0.0.0.0.0.c.0.0.9.0.0.0.7.p.7.p.0.7.0.a.i.u.6.7.v.0.0.0.r.r.0.c.c.0.0.0.0.0.0.0.0.0.0.0.0.0.c.0.0.",
"0.0.0.0.0.0.0.0.0.0.0.0.0.0.0.0.0.9.0.0.0.0.0.9.9.r.8.0.0.0.0.0.0.0.p.a.0.0.7.7.0.0.0.0.0.6.0.0.0.0.0.0.0.0.0.0.0.0.0.0.0.0.0.0.",
"0.0.0.0.0.0.0.0.0.0.0.0.0.0.0.0.r.0.0.0.0.r.0.7.0.0.8.0.7.7.0.u.7.p.8.8.y.0.7.x.0.0.0.0.0.7.0.0.0.0.0.0.0.0.0.0.0.0.0.0.0.0.0.0.",
"0.0.0.0.0.0.0.0.0.0.0.0.0.0.0.0.0.0.0.0.0.7.7.0.0.0.0.v.7.7.s.8.0.7.0.7.0.0.c.5.0.8.p.0.0.0.0.9.0.0.0.0.0.0.0.0.0.0.0.0.0.0.0.0.",
"0.0.0.0.0.0.0.0.0.0.0.0.0.0.0.0.0.0.0.0.0.0.0.0.y.9.0.7.0.0.6.9.0.0.0.7.0.0.7.8.9.i.8.0.0.0.r.0.0.0.0.0.0.0.0.0.0.0.0.0.0.0.0.0.",
"0.0.0.0.0.0.0.0.0.0.0.0.0.0.0.0.0.0.0.0.0.c.8.0.9.q.e.1.;.:.:.@.+ y d.%.e.0.0.0.i.p.0.0.0.9.9.7.0.0.0.0.0.0.0.0.0.0.0.0.0.0.0.0.",
"0.0.0.0.0.0.0.0.0.0.0.0.0.0.0.0.0.7.r.0.x.x.c.p.9.w.:.f.4 & * R.' T W G.%.7.c.0.c.c.0.0.r.9.7.0.0.0.0.0.0.0.0.0.0.0.0.0.0.0.0.0.",
"0.0.0.0.0.0.0.0.0.0.0.0.0.0.0.0.7.9.9.9.-.2.1.>.$.q < J.D.( Q J S S F T.@.0.7.0.0.b.0.9.9.r.0.0.0.0.0.0.0.0.0.0.0.0.0.0.0.0.0.0.",
"0.0.0.0.0.0.0.0.0.0.0.0.0.0.0.0.7.0.9.6.<.f.9 - o.Q Y J K H D S F ) K.w >.0.7.0.0.u.0.p.0.r.0.7.0.0.0.0.0.0.0.0.0.0.0.0.0.0.0.0.",
"0.0.0.0.0.0.0.0.0.0.0.0.0.0.0.e.e.;.:.g.3 U.R.) A n B D A J ^ ) V.> q ;.r.9.y.8.0.0.p.0.u.8.0.0.c.0.0.0.0.0.0.0.0.0.0.0.0.0.0.0.",
"0.0.0.0.0.0.0.0.0.0.0.0.0.0.0.6.#.y - T.( ~ A S { N Y ( o.P.i + @.%.>.w.0.y.5.6.7.7.0.0.0.c.x.x.0.0.0.0.0.0.0.0.0.0.0.0.0.0.0.0.",
"0.0.0.0.0.0.0.0.0.0.0.0.0.0.0.,.O U.` Y J F Y ~ Y ) a 6 < y ;.v.0.7.0.0.5.0.y.0.v.7.0.0.0.0.0.0.0.0.0.0.0.0.0.0.0.0.0.0.0.0.0.0.",
"0.0.0.0.0.0.0.0.0.0.0.0.0.0.0.&.I.X.F F ( H.l.9 q d.#.:.;.>.6.7.0.c.0.9.7.e.7.0.0.0.0.r.0.9.0.0.0.0.0.0.0.0.0.0.0.0.0.0.0.0.0.0.",
"0.0.0.0.0.0.0.0.0.0.0.0.0.0.0.%.# T B F $ t %.2.6.7.0.0.0.7.7.7.0.7.y.0.0.0.7.x.0.0.0.0.t.9.0.0.0.0.0.0.0.0.0.0.0.0.0.0.0.0.c.0.",
"0.0.0.0.0.0.0.0.0.0.0.0.0.0.0.<.& O.H ^ 3 ;.2.7.v.p.8.8.p.0.0.y.0.0.0.0.0.0.0.c.7.9.0.0.9.9.0.0.0.0.0.0.0.0.0.0.0.0.0.0.0.0.0.0.",
"0.0.0.0.0.0.0.0.0.7.0.0.0.0.0.:.4 Y.G W q 0.7.0.0.0.u.b.i.0.0.6.7.p.9.r.8.a.0.0.8.r.1.1.e.6.0.7.c.0.0.0.0.0.0.0.0.0.0.0.0.0.0.0.",
"0.r.0.0.c.0.0.0.e.7.0.p.0.0.0.#.1 X.A R d.9.7.0.0.7.8.0.0.p.9.0.8.7.0.0.0.0.0.0.9.1.q y <.-.7.7.0.0.0.0.0.0.0.0.0.0.0.0.0.0.0.0.",
"9.0.0.0.0.c.p.8.7.6.7.8.b.u.5.%.; E D ] d.9.7.v.x.0.9.y.7.0.9.6.w.;.%.+ h.@.+ d.d.8 Z.K.n.;.1.r.0.0.0.0.0.0.0.0.0.0.0.0.0.0.0.0.",
"0.0.x.x.0.0.0.0.0.7.c.0.0.0.0.f.s ~ S R d.0.0.7.0.0.c.7.b.b.7.>.9 6 $  .` Q Y T R ^ F R K.9 3.6.0.0.0.0.0.0.0.0.0.0.0.0.0.0.0.0.",
"0.0.0.7.0.9.0.9.y.0.0.0.0.0.0.+.o.H G  .@.0.u.0.0.7.2.,.,.#.$.0 P.` Y D N n z l z N G ' I.o >.t.t.0.0.0.0.0.0.0.0.0.7.0.0.0.0.0.",
"9.0.0.0.0.9.0.7.7.c.8.p.s.5.0.+.' A X.; 3.9.9.9.y.=.@.2 ; Y.( Y G D V N n [ [ [ z A G.8 %.1.q.0.0.0.0.0.0.0.0.0.0.0.0.0.0.0.0.0.",
"r.9.0.0.u.0.0.r.0.c.0.0.9.t.t.r W A o.2 >.r.>.h.+.0 d R.Q G N z { j | z { v S F ~ Y.9 >.0.c.7.0.0.0.0.0.0.0.0.0.0.0.0.0.0.0.0.0.",
"0.0.7.0.i.p.0.0.0.6.0.5.9.e.<.4 U G o.2 ,.*.d.* ` ~ J K D b { k k z k z { m _ K.0 +.,.7.0.8.b.0.0.0.0.0.0.0.0.0.0.0.0.0.0.c.0.0.",
"0.7.0.0.0.0.0.0.6.0.y.6.0.>.@.C.J S _ # t 2 K.] S j z j [ { z z z z n M / ( ; 9 >.0.0.0.c.0.0.0.0.0.0.0.0.0.0.0.0.0.0.0.0.0.0.0.",
"0.0.0.c.x.0.0.0.0.0.0.0.0.,.2 H.F N H x Y Y J B N n n { { { [ k z z N c < $.#.1.0.0.0.c.7.9.0.6.0.0.0.0.0.0.0.0.0.0.0.0.0.0.0.0.",
"0.0.0.0.7.7.0.0.5.u.p.0.0.&.& X.S v | n k { z { { { n N D ! Y J B k N ) $.0.y.6.0.0.0.0.0.9.q.7.7.0.0.0.0.0.0.0.0.0.0.0.0.0.0.0.",
"p.0.8.r.e.7.9.0.0.i.0.0.6.+.P ~ B { n k [ { l [ [ N B J ( K.3 - J n [ ] +.0.0.u.p.0.0.0.9.7.0.0.0.0.0.0.0.0.0.0.0.0.0.0.0.0.0.0.",
"p.0.9.r.6.q.0.0.i.p.p.7.w.u _ N k n { k { [ S F ~ T _ s : 9 1.q T { [ Y y 0.0.u.0.0.r.7.0.0.0.0.0.c.0.0.0.0.0.0.0.0.0.0.0.0.0.0.",
"0.0.0.9.7.6.0.9.p.u.6.1.<.E.^ [ { { l { [ N ' G.J.3 y #.%.1.t.+ W l l T d.0.7.8.7.7.7.0.0.0.u.8.0.0.0.0.0.0.0.0.0.0.0.0.0.0.0.0.",
"x.0.0.9.7.7.q.0.8.p.6.e.;.0 W N n B K F ~ ` - 0 d.;.0.p.7.t.0.d.R n N ( @.c.e.1.;.#.:.;.>.<.1.1.e.0.0.0.0.0.0.0.0.0.0.0.0.0.0.0.",
"x.0.0.0.0.7.e.0.0.b.6.6.6.f.H.Y J Z ..A.w +.#.,.1.-.0.8.0.7.0.y ] B Y f %.w.#.q 3 3 3 4 4 4 1 r 1.0.0.0.0.0.0.0.0.0.0.0.0.0.0.0.",
"0.0.0.0.0.0.0.7.0.0.0.0.7.<.5 h D.a < y >.8.0.7.7.0.0.0.0.0.0.d.Q B T @ 4 9 e K.S.o.Y.T.T.S.D.I.:.0.0.0.0.0.0.0.0.0.0.0.0.0.0.c.",
"0.0.0.0.0.0.7.0.0.0.0.0.0.q.:.@.@.g.:.w.q.0.y.0.0.0.0.0.6.6.9.d.W N B A T T ~ F F H A F A J Q K.%.0.0.0.0.0.x.0.0.0.0.u.0.0.c.7.",
"0.0.0.0.0.0.0.0.0.0.0.0.0.0.0.0.0.0.0.5.0.0.7.0.c.0.e.<.$.d.d.7 ~ { [ { { k { [ [ { { n B / Y.< ,.8.9.0.0.0.0.0.0.0.u.u.0.0.v.0.",
"0.0.0.0.0.0.0.0.0.0.0.0.0.0.0.0.0.7.s.p.5.0.0.8.0.=.&.2 - Y.( ~ n z l [ l z l l { l { H ..Z.O <.w.0.u.p.x.7.7.0.0.0.u.0.0.9.7.0.",
"0.0.0.0.0.0.0.0.0.0.0.0.0.0.0.0.0.0.0.0.0.9.e.1.%.9 d D.Q J N j z l l [ { l l { A J Y ` ; r 1.0.q.r.u.p.0.7.7.9.0.0.0.0.r.9.0.7.",
"0.0.0.0.0.0.0.0.0.0.0.0.0.0.0.0.0.7.7.0.7.e.&.9 B.^ ~ A m N { [ k { j { l j { B E P.2 +.:.>.e.0.9.r.i.u.0.0.6.t.0.0.0.0.9.9.0.0.",
"0.0.0.0.0.0.0.0.0.0.0.0.0.0.0.0.0.0.7.0.0.=.+ I.! [ { z z z l l [ n D K J J Y o.; r >.4.y.0.9.0.9.9.8.7.c.0.0.t.0.0.0.0.0.0.0.0.",
"0.0.0.0.0.0.0.0.0.0.0.0.0.0.0.0.9.i.c.7.7.<.0 T.F v { n { k z z z N E S.G.g r @.%.<.q.s.7.8.0.7.7.7.-.7.0.0.0.0.7.7.x.x.c.0.0.7.",
"0.0.0.0.0.0.0.0.0.0.0.0.0.0.0.0.u.9.8.0.0.>.9 G.F N N N D D J T T o.> , w +.e.7.1.:.:.>.<.1.,.,.2.v.7.7.u.u.0.0.7.0.x.c.p.0.0.0.",
"0.0.0.0.0.0.0.0.0.0.0.0.0.0.0.0.0.9.y.7.y.1.f.W.W H ~ W ' G.z.2 r + %.:.>.w.r.;.q 4 4 4 2 0 2 y >.9.0.0.p.0.8.0.0.0.0.x.0.0.0.u.",
"0.0.0.0.0.0.0.0.0.0.0.0.0.0.0.0.0.6.7.0.0.7.;.w f Y.m.- < w @.2.-.7.y.6.>.:.d.0 H.S.Y.Y. . .R.A.q >.7.0.0.0.y.0.9.0.c.0.0.0.u.r.",
"0.0.0.0.0.0.0.0.0.0.0.0.0.0.0.0.0.0.6.0.c.5.7.=.%.@.@.#.;.>.6.p.x.c.9.>.+.% o.Y J F H A K A K Y Y.4 <.4.v.0.y.9.0.9.7.0.0.9.0.0.",
"0.0.0.0.0.0.0.0.0.0.0.0.0.0.c.0.0.y.0.7.0.x.0.0.7.x.x.x.0.0.i.8.0.y.6.$.I.( B j { { { { k { j { J T.@.7.0.p.5.t.9.0.7.0.0.0.0.0.",
"0.0.0.0.0.0.0.0.0.0.0.0.0.0.0.0.7.7.s.8.7.0.0.0.0.0.c.c.7.9.s.5.7.1.$.z.R B n { [ [ [ [ [ j l [ n ) +.0.b.p.9.0.0.0.0.0.0.0.0.v.",
"0.0.0.0.0.0.0.0.0.0.0.0.0.0.0.0.0.0.u.s.0.6.9.y.r.0.0.0.8.9.9.e.1.+.7 V.F B M M H S S b } [ { [ l Y y 0.7.0.7.0.6.7.0.0.0.0.0.7.",
"0.0.c.y.0.0.0.0.0.0.0.0.0.0.0.0.7.0.0.5.p.p.0.9.r.9.0.0.0.0.7.<.9 K.Q F Y T o.o.o.o.T F N z j v [ T y 0.0.0.c.0.0.0.0.9.x.7.0.0.",
"0.0.0.0.0.0.0.0.0.0.0.0.0.0.0.0.0.0.0.0.0.p.7.0.0.0.9.0.0.c.7.%.> W N N / . - < ; @   F n k { { { E y 7.0.0.0.0.0.9.0.0.0.0.0.0.",
"0.0.0.0.0.0.0.0.0.0.0.0.0.0.0.0.0.0.0.0.0.0.0.0.0.0.0.0.0.0.0.@.o.N { N R $ 9 @.< @ F n j n v } N _ y 7.v.7.b.8.0.0.r.9.0.0.0.x.",
"0.0.0.0.0.0.0.0.0.0.0.0.0.0.0.0.0.0.0.0.0.0.0.0.0.0.0.0.0.0.0.d.) { l N ~ L 4 4 F._ D k { n v N J P h.6.0.0.7.p.0.0.0.0.0.0.0.0.",
"0.0.0.0.0.c.0.0.0.0.0.0.0.0.0.0.0.0.0.0.0.0.0.0.0.0.0.0.0.0.7.d.R l l { N G J T J m { z n | l D ` < ;.0.0.0.9.0.0.0.u.0.0.0.0.0.",
"0.0.0.0.0.0.0.0.0.0.0.0.0.0.0.0.0.0.0.0.0.0.0.0.0.0.0.0.0.0.8.@.Y.D n l [ [ z z { k z z n k n U A.+.e.0.7.9.9.p.0.0.0.u.7.0.0.0.",
"0.0.0.0.0.0.0.0.0.0.0.0.0.0.0.0.0.0.c.0.0.0.0.0.0.0.0.0.0.0.0.<.6 ` D n k { k k { v { [ k n F Y.y 1.0.7.0.r.9.0.0.0.8.i.0.0.0.0.",
"0.0.0.0.0.0.0.0.0.0.y.0.0.0.0.0.0.0.y.0.0.0.0.0.0.0.0.0.0.0.0.1.d.l.E D N k z z [ v [ N n J o.< <.a.p.7.0.0.9.p.0.0.0.0.0.0.9.0.",
"0.0.0.7.0.0.0.0.0.0.0.0.0.0.0.0.0.0.0.0.0.0.0.0.0.0.0.0.0.0.0.e.2.+ P.E D { l [ [ j [ } K ..0 :.t.8.5.0.0.0.p.7.7.7.0.c.0.0.0.0.",
"0.0.0.0.0.0.0.0.0.0.0.0.0.0.0.0.0.0.0.0.0.0.0.0.0.0.0.0.0.0.0.7.7.,.y > ` Y G H F ! ^ '  .& ;.8.8.s.9.9.y.8.0.0.7.7.0.0.0.0.0.7.",
"0.0.0.0.0.0.0.0.0.c.0.0.0.0.0.7.0.0.0.0.0.0.0.0.0.0.0.0.0.0.0.0.7.e.>.$.d.k.G.Y.D.N.j.d.$.:.e.6.7.0.7.0.0.p.u.0.0.v.v.7.0.0.c.0.",
"0.0.0.0.0.0.0.0.0.0.0.0.0.0.0.0.0.0.0.0.0.0.0.0.0.0.0.0.0.0.0.0.0.0.r.9.w.:.9 2 9 y >.6.0.p.0.7.6.e.6.0.0.0.u.0.0.7.7.x.0.0.0.0.",
"0.0.0.0.0.0.0.0.0.0.0.0.0.0.0.0.0.0.0.0.0.0.0.0.0.0.0.0.0.0.0.0.0.0.7.7.y.q.;.,.;.1.q.t.0.c.0.7.7.0.0.0.0.9.u.9.0.0.7.7.8.i.0.0.",
"0.0.0.0.0.0.0.y.0.0.0.0.0.0.0.0.0.0.0.0.0.0.0.0.0.0.0.0.0.0.0.0.0.7.7.0.0.0.0.7.e.9.6.0.c.c.0.9.0.0.u.0.0.r.9.r.0.0.7.0.0.0.0.0.",
"0.0.0.0.0.0.0.c.0.0.0.0.0.0.0.0.0.0.0.0.0.0.0.0.0.0.0.0.0.0.0.0.0.8.v.v.7.0.c.7.e.0.0.p.c.x.0.0.0.x.0.0.9.r.9.9.0.0.0.0.0.0.u.0.",
"0.0.0.0.0.0.0.0.0.0.0.0.0.0.0.0.0.0.0.0.0.0.0.0.0.0.0.0.0.0.0.0.8.7.7.c.c.7.7.7.6.0.7.8.0.0.x.7.0.0.0.0.t.0.0.0.0.0.u.9.9.0.0.0.",
"0.0.0.0.0.0.0.0.0.0.0.0.0.0.0.0.0.0.0.0.0.0.0.0.0.0.0.0.0.0.0.0.0.0.0.0.0.8.8.s.0.9.0.0.c.0.t.6.7.0.0.0.0.0.7.x.7.0.u.9.0.0.0.x.",
"0.0.0.0.0.0.0.0.0.0.0.0.0.0.0.0.0.0.0.0.0.0.0.0.0.0.0.0.0.0.0.0.t.0.0.p.0.9.i.u.0.0.0.0.p.0.r.q.q.0.8.0.0.0.x.x.v.7.0.u.0.7.7.x."
};
