/* XPM */
static char *_6f73802a37e489aadf5d8554b00becdmnWpYCPo6EqnH0hs[] = {
/* columns rows colors chars-per-pixel */
"64 64 183 2 ",
"   c none",
".  c #0A0202",
"X  c #0F0909",
"o  c #110707",
"O  c #140C0B",
"+  c #190E0E",
"@  c #171111",
"#  c #1A1212",
"$  c #1A1B1C",
"%  c #241B1B",
"&  c #2B1B1B",
"*  c #281716",
"=  c #2C201F",
"-  c #1C2021",
";  c #252223",
":  c #2B2424",
">  c #222A2B",
",  c #312222",
"<  c #3A2525",
"1  c #392C2B",
"2  c #2A3435",
"3  c #050000",
"4  c #3D3333",
"5  c #3E3939",
"6  c #442D2D",
"7  c #4A3534",
"8  c #423C3C",
"9  c #4A3D3D",
"0  c #4B3535",
"q  c #5C3837",
"w  c #503838",
"e  c #583535",
"r  c #59403F",
"t  c #3A5153",
"y  c #464141",
"u  c #4B4343",
"i  c #4E4949",
"p  c #524C4C",
"a  c #584948",
"s  c #41595C",
"d  c #565151",
"f  c #595555",
"g  c #525E5F",
"h  c #664A49",
"j  c #774E4C",
"k  c #675959",
"l  c #695B5B",
"z  c #735353",
"x  c #755A5A",
"c  c #7D5D5D",
"v  c #7C5655",
"b  c #696565",
"n  c #6E6A6A",
"m  c #736464",
"M  c #7A6060",
"N  c #716D6D",
"B  c #7E6B6A",
"V  c #757171",
"C  c #797575",
"Z  c #7E7B7B",
"A  c #835D5C",
"S  c #8F6A6A",
"D  c #856665",
"F  c #9F6462",
"G  c #9F6866",
"H  c #936D6C",
"J  c #81706F",
"K  c #98706F",
"L  c #847272",
"P  c #817E7E",
"I  c #8C7A79",
"U  c #8B7877",
"Y  c #9F7776",
"T  c #987675",
"R  c #AA7E7D",
"E  c #AA7876",
"W  c #BC7A79",
"Q  c #AC807F",
"!  c #C2817F",
"~  c #7B7F81",
"^  c #678C8F",
"/  c #608D90",
"(  c #78A7AB",
")  c #72A5A9",
"_  c #858282",
"`  c #898686",
"'  c #8D8A8A",
"]  c #9C8383",
"[  c #8B9B9D",
"{  c #9D9A9A",
"}  c #989696",
"|  c #AB8483",
" . c #BD8E8D",
".. c #B28786",
"X. c #B5908F",
"o. c #A09E9E",
"O. c #AE9998",
"+. c #B29C9C",
"@. c #B89493",
"#. c #88B7BB",
"$. c #89BABE",
"%. c #92BABE",
"&. c #A4A2A2",
"*. c #ACA3A5",
"=. c #ABAAAA",
"-. c #A3AAAC",
";. c #BCA6A5",
":. c #B1AEAF",
">. c #B3AFB1",
",. c #ACB5B7",
"<. c #BDBCBC",
"1. c #B4B9BA",
"2. c #CA8D8B",
"3. c #050000",
"4. c #C1908F",
"5. c #C49B9A",
"6. c #CD9E9D",
"7. c #C89594",
"8. c #D29E9D",
"9. c #C3A3A2",
"0. c #CBA8A7",
"q. c #C4ABAA",
"w. c #CAA6A5",
"e. c #D5A3A2",
"r. c #D8A7A6",
"t. c #D3ABAA",
"y. c #DAACAB",
"u. c #DAB0AF",
"i. c #C0BFBF",
"p. c #CEB4B3",
"a. c #D1B5B4",
"s. c #DCB6B5",
"d. c #DDB8B7",
"f. c #D5BBBA",
"g. c #DCBCBB",
"h. c #E0BDBC",
"j. c #DEC0BF",
"k. c #B2BFC1",
"l. c #99C7CB",
"z. c #9BC9CD",
"x. c #91C1C6",
"c. c #B6C7C9",
"v. c #B6C8CA",
"b. c #C4C3C3",
"n. c #CCCBCB",
"m. c #C8C7C7",
"M. c #DFC3C2",
"N. c #D0CFCF",
"B. c #D5D4D4",
"V. c #DBDADA",
"C. c #E3C7C6",
"Z. c #E3C6C5",
"A. c #E4C7C6",
"S. c #E3C5C4",
"D. c #E5C8C7",
"F. c #E5C8C7",
"G. c #E7C9C8",
"H. c #E7CAC9",
"J. c #EACCCB",
"K. c #E0DFDF",
"L. c #E5E4E4",
"P. c #EAEAEA",
"I. c #ECECEC",
"U. c gray93",
"Y. c #EEEEEE",
"T. c #EFEFEF",
"R. c #EEEEEE",
"E. c #E8E7E7",
"W. c gray94",
"Q. c #F1F1F1",
"!. c gray95",
"~. c #F3F3F3",
"^. c #F1F2F2",
"/. c #F4F4F4",
"(. c gray96",
"). c #F6F6F6",
"_. c gray97",
"`. c #F3F3F3",
"'. c #F8F8F8",
"]. c #F9F9F9",
"[. c #FAFAFA",
"{. c #FEFEFE",
"}. c #F9F9F9",
/* pixels */
"                                                                                                                                ",
"                                                                                                                                ",
"                                                        O O O O O O O O o                                                       ",
"[.T./.T./.T./.T.~.~.~.~.~.~.~./.W./.T./.T./.T.V.{ &.u3.3.3.3.3.3.3.3.3.3. i o.{ B.~./.T._.I._.T._.T./.T./.T./.T./.~./.~.~./.~./.",
"I./.T./.T./.T./.T.~.~.~.~.T.~.~./.W./.T./.~.{.{3.3.3.3.3.3.3.3.3.3.3.3.3.3.3. . &.[.~._.W./.T._.T._.T./.W./.T./.~./.~.~.~.~./.T.",
"/.~.~.~.~.~.~.~.~.~.~.~.~.~.~.~.~.~.~./.V.P Z i3.3. 6 z z z z z z z z z z 63.3. i Z Z V./.~.~.~.~.~.~.~./.~.~.~.~.W.~.~.W.~.~.~.",
"[.T./.T./.T./.~.~.~.~.~.~.~.T.~.~./.T.[.<.O3.3. .3. c e.8.8.8.8.6.8.8.8.e.c . .3.3. O i._.W./.T./.T./.W./.W./.~.~.W.~.W.W.~.W./.",
"P./.T.[.T.[.T./.T.~.T.~.~.~./.T./.T.[.o.y .3. < H ] 9.d.s.d.s.s.s.s.s.s.d.9.] H 13. . y &.[.T._.T._.T._.T._.W./.W./.~.~.~.~./.T.",
"/.T./.W./.T./.~.~.~.~.~.T.~.T.~.~.~.E.N3. O O a e.S.G.G.C.C.C.C.C.D.D.C.D.G.S.e.a X O3. N P./.T./.T./.W./.T./.~./.~.~.~.~.~.~./.",
"/.~./.~./.~.~.~.~.~.~.~.~.~.~.~.~.E.f # * Y @.q.g.S.S.S.S.C.S.C.S.S.S.S.S.C.S.g.0.@.Y * # f E././.~./.~./.~.~.~.~.W.~.W.W.~.~./.",
"I._.T./.T./.W./.T.~.~.~.~.~.~.~.T.<.: X 7 6.h.D.S.C.S.C.C.S.S.S.C.S.C.S.C.S.S.C.G.j.6.7 X % <.T.T./.T._.T./.W./.W./.~.~.~.~.~.T.",
"[.T.[.W./.T./.T./.~.~.~.~.~.~.[.*.$3. h 5.g.S.A.C.S.S.A.S.C.D.S.S.C.S.C.S.S.D.S.S.S.g.5.h3. % =.{.T._.W./.T./.W./.~.~.~.W./.~./.",
"T./.~.~.~.~.W.~.~.~.~.~.~.T.~.n.Z . , S u.S.S.S.S.S.C.S.C.S.A.C.C.S.S.C.S.C.S.C.S.S.S.u.S , X C n./././.W./.~./.~.~.W.~.~.~.~.W.",
"T./.~./.~./.~.~.T.~.~.~.~.~.~.f . + R u.S.S.C.D.D.S.S.C.S.C.S.S.S.C.C.S.C.S.C.S.C.S.S.S.u.R +3. f /.~./.~./.W./.W.~.~.~.~.~.~.W.",
"[.T./.T./.T./.T./.~./.~.~./.T.d3. O X.g.S.A.C.S.C.S.C.S.C.S.S.C.S.C.S.C.S.C.S.S.S.C.S.D.g.X.+3. d P._.T._.T./.T./.~./.~.~./.W./.",
"I._.W./.~./.W./.T.~.~.~./././.p3. # ;.G.S.S.S.C.S.S.D.S.S.S.D.S.C.S.C.S.C.S.D.S.C.S.C.S.A.;.#3. d [.W./.W./.W./.W.~.~.~.~.~./.W.",
"~.~./.~.~.~.~.~.~.~.~.~.~.V.Z ; & M a.A.A.S.A.S.C.S.C.S.S.C.S.C.S.S.C.S.C.S.S.D.C.S.C.S.D.a.M & : Z K./.`.~.~.~.~.~.~.T.~.~.~.~.",
"/.T./.W./.~./.T.~.~.~.~./.n.O3. 0 e.h.S.S.A.S.A.S.S.S.D.C.S.C.S.C.D.S.C.S.C.S.S.S.C.S.C.S.g.e.73. @ N.W./.~./.~.~.T.~.~.~.~.~.`.",
"P._.T._.T./.T./.T.~.~.~./.m.#3. u h.S.S.A.S.A.S.D.S.S.A.S.C.S.S.S.C.C.S.S.C.S.C.D.S.S.S.S.S.d.r3. # b.[.T./.T./.T.`.~.~.~.T.~.T.",
"[.T./.W./.W./.~.~.~.~.~.T.<.# X a F.S.S.S.S.S.A.S.C.S.S.C.S.D.S.S.S.S.S.D.S.C.C.C.S.D.S.S.S.D.a o + c.I./.~./.T.`.~.~.~.~.~.~.`.",
"/.~./././.~./.~.~.~.~./.} : . v 5.S.S.A.A.D.D.D.G.D.S.S.D.S.S.S.C.S.S.C.S.S.C.G.G.C.D.D.A.S.S.5.x . : } /.~.~.~.~.~.~.~.~.~.T.~.",
"T./.T./.T./.T./.T.~.~./._3. . S y.S.h.a.q.q.q.q.q.g.S.S.S.S.D.C.S.D.C.S.S.S.g.q.q.q.q.q.a.S.S.y.H .3. _ `./.~./.T.~.T.~.~.~.`.T.",
"[.I._.T./.T./.W./.~././.Z3. . S y.S.t.x O # # # ,3..d.C.S.C.C.S.S.D.S.C.C.d. .& + # # # x r.S.y.S .3. P [.T./.T./.~.~.~.~.~.~./.",
"T./.W./.~./.~./.~./.`./._3.3. S y.g.| x u u #3. O D 9.D.C.S.S.C.S.S.C.S.D.9.S p u 33.3. w | h.y.S .3. P /./.~./.~.~.~.~.~.~.~.~.",
"T./.T./.~.~.~./.~.~.~./._3.3. H y.f.: _ {.`.i3.3. . U G.C.S.C.S.C.S.C.S.G.L : L.{.>.X3. . < f.y.H .3. _ /.`.~.`.T.~.~.~.~.~.~.T.",
"[.T._.T./.T./.T./.~././.Z3. . H r.0.& _ {.[.p3.3.3. L G.S.C.S.C.S.C.S.S.G.L ; E.{.>..3.3. : 0.r.H3.3. Z [.T./.T.~.~.~.~.~.~.~./.",
"T./.T./.T./.T.~.~./.~./._3. . H 8.4.& _ {.{.p3.3.3. L F.S.D.D.D.D.D.D.S.G.J : E.{.1.o .3. & 4.e.S3.3. _ ~./.T./.T.~.~.~.~.~.~.T.",
"/.~./.~.~.~.~.~.~.~././.P3. . A 2.4.& 5 N N :3. .3. L G.M.U k l l k U S.G.L O b V p .3.3. & 4.2.A .3. P _.~.~.~.~.~.~.~.~.~.~.~.",
"_.T./.~./.W./.~.~.~.~./.P3. . j 2. .&3.3.3. .3.3.3. L G.g.73.3.3.3. 4 g.G.L3.3.3.3.3. .3. &3..! A . . P [.T./.~.`.T.~.T.~.~.T./.",
"P._.T./.W./.W./.T.~.~.~.B.' O * j3..&3.3.3.3. . .3. L q.u @3.3.3.3. # u q.L3.3. . . .3.3. & 4.j * o ' B.T./.T./.~.~.~.~.~.T.`.T.",
"[.T./.T./.~./.T.~.~.~.W.[.N.#3. 73..< X3.3.3. . . o T *.X O # # # # O O +.I O3. .3.3.3. X <3..73. # B.`./.~./.T.~.~.~.~.~.~.~./.",
"~.~.~.~./.~.~.~.~.~.~.~./.n.#3. 6 W ..q3.3.3.3. + K t.+.@ { V.V.V.V.o.# +.t.K +3.3.3.3. q ..W 63. + n.(.~.~.~.~.~.W.~.~.~.~.~.~.",
"I._.T._.W.).W./.W./.W.`./.n.5 O < F 7.c ; ; > ; 13..g.+.@ { V.B.B.V.{ # +.h. .1 ; ; ; > M 7.F < O 8 n._.T./.T./.~.`.~.~.~.~.~.T.",
"[.I._.T.).T./.W./.W./.~./.~.V.p3. * ..:.%.%.%.-.7.g.A.+.X O # @ @ @ O X +.D.g.7.-.%.%.%.:...*3. p B./.T._.T._.T.`.~.`.~.~.~.~./.",
"W./.W./.W./.W./.`./.W././.W.~.d3. O E >.z.z.z.1.y.S.D.q.u 9 9 9 9 9 9 u q.D.S.t.1.z.z.z.:.E +3. p `.T._.T./.~.`.~.~.T.~.`.T.~.T.",
"W./.W./.~./.~./.~.`.~.`.`.`.~.d3. + F *.z.z.z.c.S.S.S.S.M.S.M.M.M.M.M.M.S.S.A.S.c.z.z.z.*.F o3. p ~.~.`.~.`.W.`.~.~.~.`.`.~.~.~.",
"[.I._.W._.T./.W./.W./.`.~.~.T.{ y O q ~ $.z.z.c.S.A.S.S.S.S.A.S.C.S.S.D.S.S.S.S.c.l.l.$.^ q o u o.T._.T./.T./.~./.T.`.~.~.`.T._.",
"I.).T._.T./.W./.W./.~.`.~.T.`./.=.3.3.t ) z.z.c.S.S.S.A.A.S.S.A.S.C.S.S.S.S.S.C.c.z.l.) i3.3. *.`._.T._.T._.T.`.~.`.~.~.~.~.`.T.",
"/.W./.W./.`.`.~.`.~.~.W.~.~.~./.B.' # - t ( x.c.y.S.S.S.S.A.S.A.C.S.S.C.S.S.S.u.k.x.( s $ % ' B./.~.`.~.`.`.`.~.~.~.`.~.~.`.~.`.",
"_.W.).W./.W./.W./.W.`.~.~.~.~./.~.E.43. $ / #.,.6.j.S.A.A.S.A.A.S.D.S.A.S.A.j.6.,.$./ $3. 3 E.`._.T./.T./.T./.~.`.T.`.T.~.`.~./.",
"I._.T._.T._.W./.W./.~.~.~.T.`.W./.P.b.d . > 2 g [ 9.g.S.A.S.A.A.S.S.S.S.A.g.w.[ g 2 > X f b.E._.T._.I._.T._.T./.T./.T.`.`.~.`.T.",
"_.T./.T./.W./.W.`.W.~.~.~.~.W.~.~././.` @3.3. 2 ^ X.t.h.S.S.h.S.S.S.S.j.h.t.../ 23.3. O _ _._.T._.T./.T._.T./.T.`.~.`.~.~.`.~./.",
"/.`.`.`./.`./.`.~.~.~.W.~.~.W.~.~.~.~.L.=.O3. X $ * A 2.8.e.e.e.e.e.e.e.2.v * $ X3. O *.K.`.`.`.`.~.`.~.`.~.`.~.`.~.~.T.T.~.~.~.",
"I.).T./.T.).W./.W.~.~.~.~.~.~.~./.T./.~.B.8 O3.3.3. e F R R | | Q Q Q R G e3.3.3. O 5 B.Q._.U._.T./.T._.T./.~./.~.`.~.~.`.~.~.T.",
"[.T._.T.).T.).W.`.~.~.~.~.~.~./.T./.T.).P.P.y3.3.3. X O + + O O O + + + o o3.3.3. i E.I._.W.}.T._.T._.T./.T./.T.`.T.~.~.~.`.T._.",
"T./.W./.W./.W./.~.~.~.~.~.~.~.T./.~./.~.E.=.3 # 7 9 %3.3.3.3.3.3.3. .3.3. & u 7 # 3 =.E.`./.T.(.~.`.T.`.~./.~.`.~.~.~.~.~.~./.T.",
"W./.W./.W./.W./.~.~.~.~.~.W.~.~.`.~.`./.m.#3. 0 8.S.k3.3.3.3.3.3.3.3.3.3. k j.6.w3. @ m.).(.Q.`.~.`.~.`.~.`.~.`.~.~.~.~.`.`.`.~.",
"[.I.).T._.W.).W./.T.~.~.~.`.~./.~./.~.<.b X 7 T u.S.] h h h h h h h h h h ] S.u.K 7 X b k.Q._.T._.T./.T._.T./.T./.T.`.~.~.`.W._.",
"P._.T.).T.).W./.W./.W./.`.W./.W./.W.[.V3. . K u.S.D.s.6.6.8.8.8.8.8.8.8.6.u.D.G.y.K3.3. C [.T./.I._.T._.T./.T./.T./.T.`.`.T.`.T.",
"/.~./.W./.W./.~.`.~./.W.~.`.~.`.W././.C3. . K y.f.m Y 8.s.s.s.s.s.s.s.s.8.R b f.y.H X3. C /./.~.`.~.`.W.`.~./.`.`.`.~.~.~.`.`.`.",
"_.W./.W./.W./.~./.W./.~.~./.W./.~././.C3. X H y.p.% x r.S.C.D.M.S.S.S.S.t.x % p.s.K X3. C ~./.W./.T./.~.`.T.`.~.`.~.~.~.~.~.~.`.",
"I._.T._.T.).T./.W./.W./.`.W./.W./.T.[.C3. . K s.p.& B S.C.C.D.D.A.A.A.A.j.D % p.y.K3.3. C [.T._.T._.T._.T._.T./.~.`.T.`.~.~.`.T.",
"[.T.).W./.W./.W./.W.`.~.~./.W./.W./.`._ # . D 9.;.% L G.S.S.g.p.p.g.S.S.G.L % ;.6.D . # _ ~./.T._.T._.T./.T./.~.`.~.~.~.~.`.~./.",
"~.`.`./.~./.~./.`./.W.`.~.W.`.~.`.`.`.L.=.O + % *3. L G.S.y.S % % S y.S.G.L . % * # O =.L.~.~./.~.~.`.`.`.`.`.`.~.`.T.~.~.T.~.~.",
"I.).W.).T./.W./.W./.`.`.`././.W./.W./.`.B.9 O3.3.3. L G.S.u.D3.3. A t.S.G.L3.3.3. O 8 B.~./.T./.I./.T./.T./.~./.T.`.~.~.`.`.`.T.",
"[.I._.I.).T.).W./.W./.W.~./.W./.W.).T._.P.E.93.3.3. U J.S.D.U3.3. A r.S.G.U3.3.3. y E.P./.T.[.T._.T.'.T._.T./.T.`.~.`.~.~.`.W._.",
"T.).W./.W./.W./.`./.~.`.`.`./.W.`.T./.T._.I.` 43.3. a +.M.H.T3.3. A r.S.O.a3.3. 4 ` T./.~./.T./.T./.T.`.T.`.~./.~.`.~.`.`.~.~.T.",
"W./.W./.W.`.`./.~./.W.~.`.W.`.`.`.`.`.`.`.W._.}3.3.3. 4 M.J.I .3. D y.S.43. .3. } /.~.~.~./.~./.~.`.~.`.~.~.~.`.~.`.T.~.~.~.`.T.",
"[.T._.T._.W.).W./.W./.~.~.`.W./.T._.T._.T._.T.n.N #3. * m V u3.3. 7 x m *3. # N m.~./.T./.T./.T._.T._.T._.T._.T.`.~.`.~.~.`.~./.",
"I._.I.).T._.W./.W./.W./.`.~./.W._.T._.T._.T._.T.E.:3.3.3.3.3.3.3.3.3.3.3.3. : K.`./.T._.T.[.T./.I._.T./.T._.T./.T.`.~.~.~.~.`.T.",
"/.~./.W./.~./.W./.W./.W.W.`.~.~.T.`.`.`.`.`.T._.P.:.u3.3.3. 8 o.{ 83.3.3. u =.P.`.~.`.~.`.~.`.~.`.W.`.~./.~.`.T.`.W.~.~.~.`.~.`.",
").W./.W./.W./.W./.~.`.~.~.`.W.`.~.`.T./.T._.T./.T.[.C o O o n [./.n X O O C [./.`.~.`.T./.T./.T./.~./.T./.T.`.~.`.~.~.W.T.`.`./.",
"I._.T.).T._.W.).W./.W./.`.W./.W._.T._.T._.I._.I._.T.V.1.b.1.B.W./.B.<.<.<.B.W./.T._.T._.T._.T._.T._.T._.T._.T._.T./.~.~.~.~.`.T.",
"_.W./.T./.W./.W./.W./.W.~.`.~./.T.`.T._.T._.T._.T._.T.[.~.[././.~._.)._./././.~.`.~./.T._.T./.T._.T./.T._.T./.T.`.~.`.T.~.`.~./."
};
