/* XPM */
static char *_d2f5b7c9a754041e6b9b0147c61b16c82nuyGfI1Rspg5nr[] = {
/* columns rows colors chars-per-pixel */
"64 64 153 2 ",
"   c #7D1700",
".  c #7D1D00",
"X  c #6F2500",
"o  c #6E2A00",
"O  c #742300",
"+  c #7B2400",
"@  c #712B00",
"#  c #840F00",
"$  c #8C0E05",
"%  c #8F0C0A",
"&  c #910C07",
"*  c #91060D",
"=  c #930D0D",
"-  c #980D0D",
";  c #851500",
":  c #8B1303",
">  c #831A00",
",  c #8B1902",
"<  c #8E110A",
"1  c #901106",
"2  c #93110C",
"3  c #970711",
"4  c #940C11",
"5  c #990C14",
"6  c #951111",
"7  c #981113",
"8  c #832200",
"9  c #8B2000",
"0  c #912A07",
"q  c #8D3600",
"w  c #9A3811",
"e  c #A23715",
"r  c #A33B14",
"t  c #A34016",
"y  c #AE461F",
"u  c #A35212",
"i  c #AC5A1E",
"p  c #B15522",
"a  c #B8612B",
"s  c #BB6A28",
"d  c #C65B37",
"f  c #CE723F",
"g  c #D57948",
"h  c #D1883B",
"j  c #D4AB37",
"k  c #D7A739",
"l  c #D8A73E",
"z  c #D5AB3C",
"x  c #D9AB3E",
"c  c #D9B03D",
"v  c #DB814D",
"b  c #DD8F4D",
"n  c #DF974B",
"m  c #DF9F48",
"M  c #E58B4F",
"N  c #E0914E",
"B  c #E19F4C",
"V  c #E49552",
"C  c #E99556",
"Z  c #E69E53",
"A  c #EA9D55",
"S  c #E79758",
"D  c #EB9759",
"F  c #E69E59",
"G  c #EA9D59",
"H  c #EC9F5B",
"J  c #EC9C5D",
"K  c #EC9C5B",
"L  c #F09C5E",
"P  c #F19D5F",
"I  c #F19C5F",
"U  c #D7A641",
"Y  c #DDA743",
"T  c #DBA447",
"R  c #DDA544",
"E  c #DDA645",
"W  c #D6AB41",
"Q  c #DEA941",
"!  c #DEAB40",
"~  c #D9A945",
"^  c #DBAB45",
"/  c #DBA946",
"(  c #DFA844",
")  c #DDA945",
"_  c #DBAC44",
"`  c #DEAD44",
"'  c #DEAD46",
"]  c #DBAB44",
"[  c #DDA749",
"{  c #DEA649",
"}  c #DEA54B",
"|  c #DEA74A",
" . c #DEA74C",
".. c #DEA64A",
"X. c #DDA848",
"o. c #DEA848",
"O. c #DFA84B",
"+. c #DCAC48",
"@. c #DFAA4C",
"#. c #DEA94A",
"$. c #DCB041",
"%. c #E0A346",
"&. c #E1A746",
"*. c #E2A646",
"=. c #E0A944",
"-. c #E0AA46",
";. c #E1A44B",
":. c #E4A34F",
">. c #E1A54D",
",. c #E0A74D",
"<. c #E2A64E",
"1. c #E3A44C",
"2. c #E0A84B",
"3. c #E4A94B",
"4. c #E1A94C",
"5. c #E0A94E",
"6. c #E2A94C",
"7. c #E0B044",
"8. c #E2A151",
"9. c #E2A052",
"0. c #E0A352",
"q. c #E4A351",
"w. c #E6A251",
"e. c #E3A550",
"r. c #E2A552",
"t. c #E7A255",
"y. c #E5A352",
"u. c #E8A054",
"i. c #EAA055",
"p. c #E8A056",
"a. c #EBA357",
"s. c #EAA255",
"d. c #E5AA50",
"f. c #EAA059",
"g. c #EDA05C",
"h. c #EFA05E",
"j. c #EBA159",
"k. c #EF8E61",
"l. c #F98E6E",
"z. c #EF9960",
"x. c #ED9B61",
"c. c #EF9C61",
"v. c #F59766",
"b. c #F09B62",
"n. c #F19B62",
"m. c #F19A65",
"M. c #F39A63",
"N. c #F79568",
"B. c #F89868",
"V. c #FF8D72",
"C. c #F99070",
"Z. c #FB9070",
"A. c #FB9070",
/* pixels */
"= = % 2 - 3 = = 4 4 5 3 4 4 = 1 = = = 4 3 = < < % = 4 5 = 1 4 = = = 3 4 4 4 = = < < = = % = = 3 = = = = = = = 4 = = = 4 2 = = = ",
"= = % = = 3 = = < 4 4 4 4 3 = = = = = 4 4 4 % < < = 3 3 = = 4 4 = = 4 4 4 = = = = % = 4 = = - = = = = = 4 = = = 4 2 = = = 4 = = ",
"4 = 2 = = = = = % 4 4 4 4 = = = = = = = 4 4 = < = = 5 4 = = 4 4 4 % 2 = = = 3 4 = = 4 4 4 = = & = = = 4 4 2 = = = = = = 4 = 4 = ",
"= = = = 4 = = = = 2 = = = = = = = 1 = = 4 4 4 4 = = 4 = 2 = = 4 4 = % 2 = 2 = 4 4 4 4 4 = = = = = = = = = = = 4 = = 4 = 2 = = = ",
"= = 4 % 4 = % % < < = = = 4 4 4 = = = = 4 5 4 4 = = = = 1 = = = = = = = & & 2 = 4 4 4 = = 1 % < = = = = = 4 = = 4 2 = = = = = = ",
"= = 4 4 = = = % = % = 1 % 4 4 4 = = < = 4 4 3 4 = = = = & = = = - = = = = = 1 = 4 4 = % % < 4 = = = = = = = = = = = 4 = 4 = 4 = ",
"4 4 4 4 = - & 4 4 4 = % % < = = = = = = 4 4 4 4 = = = = = = = = 3 = = = 4 = = = = 4 % 6 2 4 3 3 - = = 4 = 4 2 = = = = = 2 4 = = ",
"4 4 4 4 - - = 4 4 4 = = 1 < = = = 4 = = = 4 = 4 = = = = = = = = 4 4 4 = = = = = = 4 = % 4 4 = 3 4 = = = = = = 4 = = 4 = = = = = ",
"% 4 4 = = 2 = 4 4 4 & = 3 4 4 = - = 3 = = = = = = = = = 4 = = = 3 = 4 4 = = = - = 4 3 5 % 3 = = = = = 6 = = = 4 4 = = 4 = = = 4 ",
"1 2 % 4 % % = = = 6 = = 5 4 = = = = 3 4 = 2 = = = 4 = = 4 4 = 4 = 2 ; > ; : = 5 = 3 4 4 4 = = 7 4 = = = 4 = = = = = = = = = = 2 ",
"= = < = 2 % 4 = % % = - 3 5 = % : & 4 4 7 = % 2 = 4 4 = 4 = = 1 < ; I A G . $ 4 % 7 4 4 4 4 4 < = = = = 2 = = = = 2 = = 4 2 4 % ",
"= 1 4 = = = 4 3 4 % 7 = 3 1 ; r 9 ; = 4 = & % 1 = 4 = = = = = = < > u.%.3.h.; = 7 $ 4 % 4 4 < % % = = 4 % 4 = = = 4 4 = = = = 4 ",
"4 4 4 4 - - 3 3 4 = 3 4 6 ; b.Z K > : = = 4 < % 4 4 = = = = = = 4 ; J :.{ s.; 2 % = = = = 2 & 3 4 2 = 4 = 4 2 4 = 2 = = = 4 = = ",
"4 4 4 4 = = 3 5 4 5 4 - % > Z 3.:.D ; - 4 = 6 % 4 3 = 2 = = = = 4 $ + 0.5.0.> : : < 4 3 & 2 & = = 4 = = = = = = 4 4 = = = = = = ",
"= = = = 2 = 4 = % < = = = ; G { E s.> % = 4 6 = 3 4 = = = 2 = = = , ; f.{ ,.n.> > ; = 4 = = 7 = = = = = = = 4 2 % 4 4 = = = = 4 ",
"= 6 4 % % = % = < % = = = : O :.^ ,.t < = 3 4 2 4 4 4 = & 1 = = & , . f.{ { Z O p V.= = = = = = = = 4 = 4 = = = = = = = = 4 = 2 ",
"4 = = = = = % = & = & = 2 ; . A X.5.c.; 1 = - = = 4 4 4 2 = = = & : + ;.^ ^ / y.z.A.1 - = 4 = = = = = 4 = = = 2 = 4 2 = 4 = = = ",
"4 = = = 4 = = = = - 3 7 % : > P 3.T h.. : = = & = 4 3 5 & < 1 : : > h =.-.W ^ 0.+ ; 1 = & = 6 4 4 2 = = = 4 = 4 = = 4 = % 4 4 = ",
"= = = = 4 = = % % = 4 4 % < > z.@.[ S > 1 = = = = 2 = 4 2 $   > G y.*.Q ! ] y.O ; % 1 & = % = 4 % = = = = = = = = 4 = = = = 2 = ",
"= = = 4 = 4 6 = = 4 4 5 % $ ; g { T a.. < = = 4 % 2 1 : ; . m.F ;.^ =.=.x %.J . : = = = % 7 % = 6 = 4 = 2 4 = 4 = = = = = = 4 = ",
"= = = = 4 4 = = = 4 4 4 = 6 : > ;.x X.H : 4 4 4 = : ; . A d.X.^ W W ,.3.=.R I . < % 6 = & = = = = = 4 = = = 4 % 4 = = 4 = 2 4 = ",
"& = = 4 4 4 4 = = % 4 4 4 4 1 ; 1.$.W t.; = 4 % ; . m.f.;.x x W 5.e.o B -.3.D > ; 6 = % 5 = = = = 4 = 2 = = = = 2 = = % 4 = = = ",
"& = = 4 3 4 = 4 % 4 4 4 6 4 = ; :.k k a.; 2 ; > u y.:.{ ^ x X.f.. . O :.-.m J . : % = = = = = % = = = 4 4 = = 2 = 4 = 4 = = = = ",
"= 1 = 4 3 4 4 = % = = = 4 4 = : A Q ] :.; : . x.{ W / E 6.y.G . ; ; M 3.W ;.z.> < % = = = = 2 % = = = = = = = 4 = = 2 4 = = = 4 ",
"& 2 = 4 3 4 = = = 1 = = = = = : q e.^ y.> ; G { ] x x *.J 0 ; : : > y.x $.;.r $ % 2 3 4 4 4 4 4 = = 4 = = = = 4 = = = = = 4 2 = ",
"2 = = 4 4 4 4 = & = = = = = = < > f.@.0.. w 0.` ^ Y *.i.> $ < < ; I -.z x a.; = = = 4 5 4 4 4 = = = = = 4 = = = 4 = 4 = = = % 4 ",
"6 = 4 4 = = - = = 1 < < = = - < > F @. .+ J E x E y.M > : : , > f.+.W _ E V , - = = = = 3 7 % = 4 2 < 4 = = = = = 2 4 = 2 4 4 = ",
"% = = = = = & & = = = & = = & < ; z. .T X A -.W :.+ > , ; > . b.T _ W  .f.. $ - : : ; ; % % = 4 = = 4 = = = = = = = = = = = = = ",
"= = = 4 % 6 = - = = = % < 4 = = = > :.W @ Z [ ^ w.O . + + s i.%./ /  .H > ; = : > + Z P < & 6 4 4 = = = = = = 6 % 4 4 = 4 = = = ",
"4 = = = % % = = 4 3 4 = % < = = 3 ; f.,.Z n  .{ 1.i.A f.:.:.=.-.^ e.H > ; 2 ; > K :.6.A : = 4 % = = = 4 4 = = = 4 = 2 = = = = 4 ",
"3 = 4 = % % = = 3 5 4 = 4 2 4 4 = , . H J O 0.{ E X.X.{ ^ W W -.;.Z ; ; ; . G t.:.:.Z + : = = 4 2 = = = = = = 2 = = = = = = = = ",
"= 4 4 = 6 < = = 5 3 4 4 = % 4 4 = : > v.N.. + A ,.X.5.{ ^ ,.:.Z j.> ; ; . H { / ;.B I   < 4 = 4 4 = = = = = 4 4 = = = 4 = 4 2 = ",
"= = = = = = = = 4 4 4 4 6 4 % 4 4 = ; d N.. ; > a H J G G c.v.; ; ; . b r.^ ] x ;.J > 1 1 = 5 = & = = = = = = 5 = 3 = = = = = = ",
"= 4 = = = = = = = = = = = = = 4 5 % < , C., # < ; > > > . ; : < , > G { U x j ] y.+ : = % 4 = = & = = & = 5 = = 4 = = = = 2 4 4 ",
"= = 6 = 4 = = 4 = = = = = = = = 4 4 6 < $ = 6 6 % % < : , ; : ; > h.{ / ^ ] $.^ j.> < 4 4 7 4 = = = 4 4 = = $ = 4 = = = = = = 4 ",
"= 4 = = = = = = % 6 = = = = = = = % 4 4 4 4 % = 5 4 4 = < < ; > A @.W W W +.W ;.C > % 5 % 4 = = 3 4 4 4 = 4 = = = 4 = = = = = = ",
"= = 4 6 = = 4 = = = 4 = = = = = % & 2 = 4 4 7 % % 3 4 2 & : . H  .W ] z W ` l :.M.; = 3 6 % = = 4 4 5 4 4 % = = = 4 3 = = = = = ",
"= = = = = = 6 % = = = = = = = = 2 = = 2 & = % 4 7 $ = = : > K R ^ j ] ^ 3.E -.1.> , & $ < ; : < 1 1 = % 4 % = = = = 4 = = = = = ",
"= = = = 4 = = = = = = = 4 6 = = 4 % = % 2 % 4 = 4 4 3 1 . h.@._ ] ` { m @ y.^ y.> % 7 < . . > > ; : < 2 < = = & = 4 3 = = = = = ",
"= = = = = = = = = = 6 4 = = = 4 4 5 4 5 % 2 - = % < < > J T / ] W ;.A + O A ,.Z ; < > 8 x.G A K M.y ; : < = = 4 4 4 3 = - = = = ",
"4 = = = = = = = = = = = = 4 = = 4 4 4 = = 1 = = = : + H  ./ z _ ,.D > > . F :.j.; > K d.X.+.{ ,.u.K > ; % = = 4 4 = < = = = 4 4 ",
"= = = = = 4 = = 6 = = = = = 4 = = = = = = = = & 1 ; F { ` W 4.:.i > % 1 > M.G O . J ,.z W ] W -.%.y.m.> < % 3 7 4 = 4 4 = = 4 4 ",
"= 6 = = = = 4 = 4 = = = = 4 = = 4 - 3 = = - = 1 > v w.l ] T A , : 1 4 = = , . O y.[ +.W ] W x k x 3.G > : & 4 * 4 = % % = = 4 4 ",
"= 4 = = 4 = % 6 % 4 = = = = = = = * = = 3 = = : . s.3.W 3.A > : 2 = 3 3 5 $ k.j./ W z _ X.-.7.j x ] f.> % = 4 5 4 = = < = = = = ",
"= % = = = = = 4 = = = = = = 4 = 4 = = < 4 4 % ; H T / d.K > 1 & $ 7 = = < > A *.^ x z W @. .x x j ^ j.> $ 4 3 4 4 = = = = = 4 4 ",
"= 6 4 = = = = 6 = 4 = 6 = = = = 4 = % < 4 4 4 ; A X.,.F > : 2 = = % % $ ; f :.x x x m } G X ^ c c x G > : = = 7 4 % = - % 4 = = ",
"= = 4 = = = = = = = 4 = 6 = = = = < = = 3 4 4 ; J t.c.> $ = & = = = 5 , + y.E x j $.f.g ; > ,.z ] 6.S 8 : 4 = = = % = = = = = = ",
"4 = = = = = = = = = = = = = = = = = = = 5 5 4 : . x.> ; 1 = = = = = % > G 3.] ] _ y.+ ; = ; :.x x ,.J   : = = = = 4 = = = = = = ",
"= = 4 6 = = = = = = = 4 = = = 4 = % 4 = 4 4 4 < ; , % = 2 = = = 2 $ > b.1.] ] X.H . : % 4 ; :.x W ,.K > < 6 4 4 % 4 4 = = = = = ",
"= = = = = % 4 = 4 = = = = = % 6 = = 6 = = = = = 4 = = = = = = 4 = < . J %.] 6.s.. ; % 5 3 ; :.` ^ ;.J . : % 4 3 = = = = = = 4 4 ",
"= = = = 4 6 = = 6 = = = = = = = 4 = = = = = 4 = = = = = = 4 = 4 * = : v.3.3.C > ; < 4 4 7 ; K Y W 6.n., < = 4 5 4 = = = = = = = ",
"= = = = = = = 4 = = = = = 4 = = = = = 4 = = = = = = = = = = = = 5 = 1 > L A > < % = 7 3 5 ; u ,.^ ;.+ : % 6 % % 4 4 = = = = = = ",
"= 4 4 = = = = = = = % 6 = 6 = = = = 4 = = = = 4 = = 4 = = = = = = & % : ; : 1 % 2 $ - - $ : . t.^ :.> % 2 = % 2 4 3 = = 3 4 = = ",
"= = = = = = = = 4 = = 4 = 4 = = = = = 2 4 = = = = = = = = = = = = & 7 % 4 = 4 4 = - - & = : . g.X.B , = 4 = % % = - = 1 4 4 = = ",
"= 4 6 = 4 = = = = = = = 4 = = = 4 = < 4 = = 4 2 = = 4 = 4 4 = = 4 % % % = 5 = 4 3 5 * = = ; . A ;.y.; 4 4 4 = = 4 4 = & = 4 = = ",
"= = % = 6 = = = = = = = = = = = = = 4 = = = = = 4 2 = = 2 = = = 4 4 = 7 = = 4 3 4 3 - & 2 < . H y.K < - 3 4 = 7 4 = % = 4 4 4 1 ",
"4 = = = = = = = = 4 = = = 4 6 % 2 = = = = = = = = = 4 = = = 2 = 6 = 4 4 % % = 4 4 5 4 6 % < > M.G + ; 4 4 * 5 4 4 = 1 = = 4 = = ",
"= = = 4 = 4 = = = 6 4 = = = = = 4 = 4 = 4 = = 4 = = = 2 = = 4 = % % 4 = < : = 3 % % = = = # ; N.m.> : % 4 4 4 4 4 = < % = 4 = = ",
"= = = = = = 6 % = = = = = = = = = = = = = = 2 = 4 = = 4 = 4 = 4 6 4 4 = & = = = 4 6 4 & 6 < : V.V.> < 2 * 6 5 5 = = 1 < = 3 = = ",
"= = = = = 6 4 = = = = = = = = 4 = = 4 = = = 4 = = = = = = = = = 4 4 % 6 = = = 4 & = - = % < < : : : < % 4 4 3 4 = = = = 4 4 = 4 ",
"4 = = = = 4 = = = 4 = = 4 = = = 4 2 = = = = = 4 = 2 = 4 = = = = 3 3 4 < 1 < 4 4 7 = & = 1 % = = % = 1 1 = = 4 4 = = 2 = = 4 = = ",
"6 % 4 = = = = = = = = % 6 = = = = = 4 = 4 = = = = 4 = = = = = 4 - = = = 1 = 4 4 3 4 & = 2 % 6 4 = = = = = = 4 4 = = = 3 4 4 = 2 ",
"= = = = = = = = = = 4 6 = = = = = = = = 2 = 2 = = = = = = = = = = = 4 = 4 = 4 4 4 = 2 = = 4 % = 4 * 4 = % 2 = = = = = - 3 4 = < ",
"= = 6 = = = = 6 4 = = = = 4 = = = 4 = = = 4 4 = = = 4 = = = = = = 1 4 4 3 = 4 % 4 = = = 4 4 = = 3 4 5 = 2 1 % = < = = 4 4 = = = "
};
