/* XPM */
static char *_236304ed70043cadd58b22203ca52d8EMvMYe8TnRsDf0Xo[] = {
/* columns rows colors chars-per-pixel */
"64 64 184 2 ",
"   c #7E0D25",
".  c #790E28",
"X  c #7E1225",
"o  c #73122D",
"O  c #7C132C",
"+  c #66163D",
"@  c #6C153D",
"#  c #6F193D",
"$  c #741435",
"%  c #7A1533",
"&  c #711836",
"*  c #781834",
"=  c #72163B",
"-  c #74183B",
";  c #7F1E3F",
":  c #57164E",
">  c #5F194F",
",  c #5E1B55",
"<  c #551C5D",
"1  c #5D1D5A",
"2  c #661544",
"3  c #6A1643",
"4  c #671941",
"5  c #6C1944",
"6  c #64174D",
"7  c #6A174B",
"8  c #65194B",
"9  c #691B4A",
"0  c #621B52",
"q  c #6B1E50",
"w  c #631E5C",
"e  c #5F2154",
"r  c #6B2153",
"t  c #63235C",
"y  c #6C265F",
"u  c #6E285E",
"i  c #702657",
"p  c #4C1E67",
"a  c #4A1E6D",
"s  c #561D61",
"d  c #542060",
"f  c #5A2262",
"g  c #5E266D",
"h  c #4C2170",
"j  c #592570",
"k  c #652360",
"l  c #64296A",
"z  c #702963",
"x  c #6B316B",
"c  c #73326D",
"v  c #78346D",
"b  c #652B75",
"n  c #653379",
"m  c #6B337C",
"M  c #6D3A7F",
"N  c #733573",
"B  c #743876",
"V  c #7B3876",
"C  c #72377C",
"Z  c #743A7C",
"A  c #793878",
"S  c #8E0D0D",
"D  c #930A06",
"F  c #930D0C",
"G  c #990E0C",
"H  c #92100E",
"J  c #860D16",
"K  c #8D0E14",
"L  c #860E1A",
"P  c #8A0E1A",
"I  c #930E12",
"U  c #980D12",
"Y  c #900E18",
"T  c #8E1114",
"R  c #85101D",
"E  c #8A111A",
"W  c #931113",
"Q  c #981014",
"!  c #90111A",
"~  c #830F22",
"^  c #831223",
"/  c #8A1222",
"(  c #81142A",
")  c #801330",
"_  c #80264A",
"`  c #823468",
"'  c #833870",
"]  c #5E3F8F",
"[  c #5D3D94",
"{  c #553E9B",
"}  c #5A3E9A",
"|  c #623786",
" . c #663A86",
".. c #6C3B84",
"X. c #653C8B",
"o. c #6A3D8A",
"O. c #723D83",
"+. c #713E8B",
"@. c #633E93",
"#. c #693E91",
"$. c #633E9B",
"%. c #553FA3",
"&. c #3E44B6",
"*. c #3D46BD",
"=. c #3F48BF",
"-. c #5C4195",
";. c #56419D",
":. c #5C419C",
">. c #6E428B",
",. c #654195",
"<. c #62429A",
"1. c #4B41A6",
"2. c #4D44AC",
"3. c #5442A5",
"4. c #5A42A2",
"5. c #5244AC",
"6. c #5942A9",
"7. c #5048AF",
"8. c #4545B5",
"9. c #4C45B2",
"0. c #4748B6",
"q. c #4C48B5",
"w. c #4247BE",
"e. c #4946BA",
"r. c #4148BD",
"t. c #4349BD",
"y. c #4348BE",
"u. c #4249BE",
"i. c #434ABF",
"p. c #4049BE",
"a. c #4548BD",
"s. c #4248BD",
"d. c #4848BA",
"f. c #4A49BB",
"g. c #5447B1",
"h. c #6043A0",
"j. c #3B46C2",
"k. c #3C46C1",
"l. c #3E47C0",
"z. c #3D47C2",
"x. c #3C47C3",
"c. c #3F47C3",
"v. c #3E46C3",
"b. c #3D45C1",
"n. c #3D47C6",
"m. c #3E47C2",
"M. c #3B49C3",
"N. c #3D49C1",
"B. c #3E48C1",
"V. c #3F48C1",
"C. c #3D49C3",
"Z. c #3E48C3",
"A. c #3F49C2",
"S. c #3F4AC0",
"D. c #3B49C4",
"F. c #3A48C5",
"G. c #3B49C6",
"H. c #3D48C4",
"J. c #3E48C4",
"K. c #3F49C5",
"L. c #3F49C4",
"P. c #3D48C6",
"I. c #3C4AC7",
"U. c #3E4AC6",
"Y. c #3F48C2",
"T. c #3B49C8",
"R. c #4147C1",
"E. c #4046C0",
"W. c #4246C1",
"Q. c #4147C3",
"!. c #4147C2",
"~. c #4348C0",
"^. c #414BC1",
"/. c #4049C2",
"(. c #4349C3",
"). c #414AC3",
"_. c #4449C1",
"`. c #474EC3",
"'. c #4048C4",
"]. c #404AC5",
"[. c #404BC7",
"{. c #424BC4",
"}. c #4149C3",
"|. c #454FC8",
/* pixels */
"V.V.V.V.V.V.V.V.V.V.V.V.V.V.V.V.V.V.V.V.V.V.V.V.V.V.V.V.V.V.V.V.=.V.w.R.V.J.J.V.w.w.n.D.c.M.c.c.c.V.V.V.V.V.V.V.V.V.V.V.V.V.V.V.",
"V.V.V.V.V.V.V.V.V.V.V.V.V.V.V.V.V.V.V.V.V.V.V.V.V.V.V.V.V.V.V.V.=.=.w.R.J.V.V.R.W.R.J.J.=.~.x.c.=.V.V.V.V.V.V.V.V.V.V.V.V.V.V.V.",
"V.V.V.V.V.V.V.V.V.V.V.V.V.V.V.V.V.V.V.V.V.V.V.V.V.V.V.V.V.V.V.=.=.=.=.c.V.V.w.R.*.R.*.=.`.*.r.c.V.V.V.V.V.V.V.V.V.V.V.V.V.V.V.V.",
"V.V.V.V.V.V.V.V.V.V.V.V.V.V.V.V.V.V.V.V.V.V.V.V.V.V.V.V.V.V.V.=.=.=.c.c.V.V.r.w.w.w.R.~.*.r.~.V.V.V.V.V.V.V.V.V.V.V.V.V.V.V.V.V.",
"V.V.V.V.V.V.V.V.V.V.V.V.V.V.V.V.V.V.V.V.V.V.V.V.V.V.V.V.V.V.V.V.D.D.c.n.V.=.w.R.r.|.x.I.&.=.V.J.c.V.V.V.V.V.V.V.V.V.V.V.V.V.V.V.",
"V.V.V.V.V.V.V.V.V.V.V.V.V.V.V.V.V.V.V.V.V.V.V.V.V.V.V.V.V.V.V.V.D.D.c.R.V.V.w.a.1.5.a.8.i.*.c.J.V.V.V.V.V.V.V.V.V.V.V.V.V.V.V.V.",
"V.V.V.V.V.V.V.V.V.V.V.V.V.V.V.V.V.V.V.V.V.V.V.V.V.V.V.V.V.V.V.=.w.R.R.R.V.~.c.2.n < -.2.8.r.r.R.V.V.V.V.V.V.V.V.V.V.V.V.V.V.V.V.",
"V.V.V.V.V.V.V.V.V.V.V.V.V.V.V.V.V.V.V.V.V.V.V.V.V.V.V.V.V.V.V.w.8.w.R.c.V.w.w.:.5 & < :.q.*.r.~.V.V.V.V.V.V.V.V.V.V.V.V.V.V.V.V.",
"V.V.V.V.V.V.V.V.V.V.V.V.V.V.V.V.V.V.V.V.V.V.V.V.V.V.V.V.V.V.V.R.~.*.V.J.~.8.3.n O X 8 o.q.V.c.J.c.V.V.V.V.V.V.V.V.V.V.V.V.V.V.V.",
"V.V.V.V.V.V.V.V.V.V.V.V.V.V.V.V.V.V.V.V.V.V.V.V.V.V.V.V.V.V.V.V.~.x.V.J.*.9.@., ^ P 3 ..2.x.P.J.V.V.V.V.V.V.V.V.V.V.V.V.V.V.V.V.",
"V.V.V.V.V.V.V.V.V.V.V.V.V.V.V.V.V.V.V.V.V.V.V.V.V.V.V.V.V.V.V.J.x.I.J.V.r.9.#.7 R E 3 o.2.V.J.J.n.~.V.V.V.V.V.V.V.V.V.V.V.V.V.V.",
"V.V.V.V.V.V.V.V.V.V.V.V.V.V.V.V.V.V.V.V.V.V.V.V.V.V.V.V.V.V.V.V.J.D.V.~.=.2.o.2 R R 2 o.9.J.J.V.c.c.V.V.V.V.V.V.V.V.V.V.V.V.V.V.",
"V.V.V.V.V.V.V.V.V.V.V.V.V.V.V.V.V.V.V.V.V.V.V.V.V.V.V.V.V.V.V.V.J.V.*.=.r.2...7 ^ X 5 ..g.V.n.c.V.V.V.V.=.V.V.V.V.V.V.V.V.V.V.V.",
"V.V.V.V.V.V.V.V.V.V.V.V.V.V.V.V.V.V.V.V.V.V.V.V.V.V.V.V.V.V.V.V.'.t.2.3.;.X.O.7 X X @ ..5.'.n.c.V.V.V.V.c.=.V.V.V.V.V.V.V.V.V.V.",
"V.V.V.V.V.V.V.V.V.V.V.V.V.V.V.V.V.V.V.V.V.V.V.V.V.V.V.V.V.V.V.V.R.9.[ B 5 = ' 2 R X # B 5.R.R.w.V.c.V.V.c.c.V.V.V.V.V.V.V.V.V.V.",
"V.V.V.V.R.R.J.V.V.=.V.V.c.c.R.R.V.c.=.=.=.V.V.V.V.V.V.V.V.w.w.9.3.@.0 = O $ ` 7 ^ E o v %.8.2.3.:.-.:.3.2.a.=.V.n.V.J.V.V.V.V.V.",
"M.V.V.=.r.R.J.J.V.=.=.V.J.J.R.w.R.r.=.w.r.=.x.M.c.~.*.V.=.a.9.,.z = ( O 0 C V = R T R # @.5.>.A 3 $ % 2 h 5.8.D.J.J.n.V.R.R.V.J.",
"V.V.c.R.w.R.J.V.~.r.=.8.3.3.6.5.w.~.r.r.r.=.M.M.c.*.'.w.9.4.X.0 % P K * o.$.C 5 R F S O B g 6 $ ^ L ( @ o.3.V.I.J.J.c.R.R.w.n.J.",
"w.w.W.(.n.J.=.w.8.r.V.5.> @ 0 X.9.x.c.=.V.J.V.V.*.w.R.2.@.N @ O L L ^ 2 } 6.o.7 ^ F F K ^ O X ^ ^ $ 1 ,.3.8.r.x.D.J.R.a.w.w.R.R.",
"w.w.W.W.P.J.r.w.t.*.M.:.- K O u 5.x.~.V.c.x.c.=.R.8.5.,.1 $ / F S L = O.2.2.X.2 ^ F F F F T T ^ @ N 4.2.a.8.w.~.J.J.w.a.r.V.R.w.",
"R.R.V.V.J.J.R.~.r.=.'.{ $ K K @ 4.n.b.E.'.'.'.'.n.5.O.+ ( J I F F ^ g 3.0.2.>.2 / F U I F K R @ o.1.8.r.t.t.r.R.V.~.a.w.V.J.n.V.",
"w.V.J.J.V.V.'.R.c.c.c.4.5 E K O X.g.w.E.R.R.E.e.5.X.@ ^ T F F Y R @ :.0.r.1.>.2 ~ F F Y ^ o 5 Z 5.V.D.D.w.t.=.V.V.V.8.w.V.J.V.V.",
"w.=.~.n.=.=.c.c.'.b.`.5.c o E ^ 6 [ e.'.T.%.e.%.B @ ^ T S S U ~ 6 ,.q.~.V.2.X.7 ~ U U ~ 7 n } 5.0.=.P.F.J.D.x.J.D.n.V.r.w.w.V.J.",
"w.r.D.V.=.=.V.c.n.'.E.5...5 L E & B 5.b.Q.5.$.b @ ^ T F S Y Y $ X.2.w.n.R.9.@.> ~ U U   ..6.w.R.8.r.J.F.T.D.P.T.D.J.V.r.r.V.V.J.",
"r.=.M.M.M.=.r.r.c.c.W.5.o.7 ~ P X i 3.a.5.#.2 O ^ T S H I P ( q <.e.W.W.w.q.{ f ( I D % @.w.R.'.R.w.V.~.w.w.c.J.J.V.r.r.V.J.J.D.",
"w.=.M.F.V.R.r.r.'.'.R.9.[ 1 O Y E & ..[ o.0 ^ F W T F S P ) 2 +.5.w.~._.W.e.9.o.) F F o 4.'.R.'.'.R.R.w.w.w.=.V.M.V.r.w.V.V.D.D.",
"n.V.M.S.R.w.w.w.w.W.R.&.0.X.O D W R & i o ^ K F S H S H P = #.2.8.*.=.V.E.w.w.,.% D H o :.V.c.J.n.c.R.w.R.w.w.V.V.=.=.=.r.=.c.V.",
"'.n.~.~.W.R.V.V.c.c.c.r.=.-.$ I F F T F K F H F S S S R = C g.n.=.=.=.M.'.R.n.:.$ W S & -.8.V.V.J.c.V.w.V.c.=.V.=.=.c.=.r.=.=.=.",
"R.R.w.w.n.R.R.V.n.c.{.*.S.3.2 P S F K K F F F F W K E = X.g.8.[.S.I.M.M.n.J.J.3.3 R K o <.r.=.V.J.J.n.V.V.V.V.V.V.V.V.V.=.w.w.w.",
"c.~.=.c.c.c.R.~.V.J.V.~.V.2...@ / F F S F F F I K X 3 O.2.j.'.*.V.V.V.J.c.c.c.5.B @ ( # { =.V.V.J.J.V.V.V.n.V.V.V.V.V.V.V.V.r.w.",
"=.=.V.V.V.c.n.n.V.=.=.=.R.w.9.o.O I Y W F Q G P % 0 [ 9.*.V.=.=.V.V.c.V.=.*.=.8.-.d 8 c 5.~.n.c.R.w.R.w.V.D.V.V.=.r.V.V.V.J.V.V.",
"=.V.V.V.V.c.'.V.=.=.=.=.=.~.P.g.0 O   ~ E L L $ y #.9.P.c.=.=.V.~.R.R.=.r.=.~.a.2.-.a #.9.'.*.V.R.r.R.w.c.D.J.=.r.r.V.J.J.J.V.J.",
"V.V.V.V.V.V.c.V.c.=.V.V.c.=.c.a.4.| 0 2 5 8 e ..4.2.w.J.V.V.c.V.=.w.'.R.w.=.=.*.*.0.2.%.'.P.=.c.V.=.R.V.V.V.V.V.V.=.V.V.V.V.V.V.",
"V.V.V.V.V.V.V.V.V.V.V.V.=.c.=.V.~.9.[ >. .#.{ 9.a.n.J.c.R.=.V.S.=.V.'.'.'.c.=.=.V.c.R.`.j.P.'.c.V.V.V.V.V.V.V.V.V.c.V.V.V.V.V.V.",
"V.V.V.V.V.V.V.V.V.V.V.V.c.=.V.V.=.r.9.2.2.9.a.8.c.c.n.n.w.8.*.=.=.r.~.R.n.'.~.w.j.R.Q.n.'.'.b.R.V.V.V.V.V.V.V.V.V.V.V.V.V.V.V.V.",
"V.V.V.V.V.V.V.V.V.V.V.V.V.~.V.V.i.=.=.=.M.P.J.J.c.c.c.c.w.w.V.V.V.*.a.9.g.9.2.g.g.9.%.%.w.R.'.'.V.V.V.V.V.V.V.V.V.V.V.V.V.V.V.V.",
"V.V.V.V.V.V.V.V.V.V.V.V.V.V.V.V.V.V.V.V.U.S.M.~.w.w.'.'.c.c.V.x.T.%.%.$.#. .X. ...o.+.$.g.8.=.M.V.V.V.V.V.V.V.V.V.V.V.V.V.V.V.V.",
"V.V.V.V.V.V.V.V.V.V.V.V.V.V.V.V.V.~.R.=.V.=.V.V.*.w.~.'.J.~.a.2.%.#.O.w 6 2 9 2 2 2 3 0  .;.8.V.V.V.V.V.V.V.V.V.V.V.V.V.V.V.V.V.",
"V.V.V.V.V.V.V.V.V.V.V.V.V.V.V.V.n.'.'.=.=.=.D.j.=.=.c.x.c.e.4.O.2 $ ) ( ^ ^ ^ ^ / ~ ^ O $ e 3.=.V.V.V.V.V.V.V.V.V.V.V.V.V.V.V.V.",
"V.V.V.V.V.V.V.V.V.V.V.V.V.V.V.V.R.R.R.&.i.=.J.J.w.w.=.a.5.[ l @ L I I I F F I I F F Y K T & [ e.r.V.V.V.V.V.V.V.V.V.V.V.V.V.V.V.",
"V.V.V.V.V.V.V.V.V.V.V.V.V.V.V.V.~.c.w.R.=.V.V.~.e.e.R.1.o.3 O E T S I F H D H F F H H F W o o.5.a.V.V.V.V.V.V.V.V.V.V.V.V.V.V.V.",
"V.V.V.V.V.V.V.V.V.V.V.V.V.V.V.V.c.=.=.V.J.w.8.9.5.%.%.@.2 ~ K G S I Y J R X ( O o ^ T F Y ( 1 :.9.V.V.V.V.V.V.V.V.V.V.V.V.V.V.V.",
"V.V.V.V.V.V.V.V.V.V.V.V.V.V.V.V.=.J.J.J.x.8.5.} #.+.A r O P F D F K ^ % + t X.$.$.N   Q I ~ 6 X.9.=.V.V.V.V.V.V.V.V.V.V.V.V.V.V.",
"V.V.V.V.V.V.V.V.V.V.V.V.V.V.V.V.V.c.M.J.x.f.3.a 0 2 - O E K I W ^ * 2 N >.-.9.9.%.b ( I I   t <.9.c.V.V.V.V.V.V.V.V.V.V.V.V.V.V.",
"V.V.V.V.V.V.V.V.V.V.V.V.V.V.V.R.R.R.n.J.*.a.3.p @ ^ P E K Y Y / 6 o.:.5.2.8.w.2.+.3 / F I % @.8.w.c.=.V.V.V.V.V.V.V.V.V.V.V.V.V.",
"V.V.V.V.V.V.V.V.V.V.V.V.V.V.V.R.w._.J.V.*.8.7.] # ^ E K Y K T 5 o.2.R.c.*.w.a.:.7 ( P F S o :.V.c.c.V.V.V.V.V.V.V.V.V.V.V.V.V.V.",
"V.V.V.V.V.V.V.V.V.V.V.V.V.V.V.V.w.R.V.V.V.=.8.1...0 = ^ K F K & @.e.J.P.r.0.3...* Y F G F o -.0.=.V.V.V.V.V.V.V.V.V.V.V.V.V.V.V.",
"V.V.V.V.V.V.V.V.V.V.V.V.V.V.V.V.w.=.V.M.M.V.V.f.3.#.A 2 % ^ o r 3.R.P.w.3.-. .6 ~ I D F D X x ,.[ :.2.9.w.w.V.V.V.V.V.V.V.=.w.=.",
"V.V.V.V.V.V.V.V.V.V.V.V.V.V.V.=.=.r.=.D.T.F.~.w.e.9.6.@.l : f ] 9.J.c.2...2 $ ^ Y F D G S T O O O @ s [ 2.w.V.'.V.n.R.V.w.r.w.r.",
"V.V.V.V.V.V.V.V.V.V.V.V.V.V.V.w.8.r.=.D.T.T.r.r.R.R.w.9.:.@.{ 5.t.x.~.;.2 ^ E F F F F I K W F I T O 0 [ 9.=.=.J.n.R.n.c.V.r.r.w.",
"V.V.V.V.V.V.V.V.V.V.V.V.V.V.V.w.w.w.c.V.G.M.r.r.c.D.J.=.8.2.a.r._.=.w.:.- K W F G D I I I F D K ^ 3 j 3.a.x.J.=.~.n.J.J.D.V.J.n.",
"V.V.V.V.V.V.V.V.V.V.V.V.V.V.V.V.R.R.R.V.M.M.r.=.V.V.M.V.=.*.x.J.c.w.t.:.= ! S F D F I K P / ^ * 6 O.h.9.=.D.V.V.R.R.J.J.V.J.J.V.",
"V.V.V.V.V.V.V.V.V.V.V.V.V.V.V.V.J.J.J.J.V.c.c.=.=.w.w.~.J.I.J.c.R.w.r.3.r X K F G F F L O @ 1  .-.2.8.W.~.~.8.r.W.W.R.R.V.V.V.D.",
"V.V.V.V.V.V.V.V.V.V.V.V.V.V.V.V.V.J.V.V.w.=.V.J.=.w.w.w.T.T.c.R.R.V.*.2...7 $ ~ / ( % 3 u ..} 5.8.~.n.b.c.V.r.t.w.R.R.c.r.~.n.n.",
"V.V.V.V.V.V.V.V.V.V.V.V.V.V.V.V.=.=.w.w.w.w.J.J.'.w.8.w.J.D.r.t.c.J.V.r.2.[ 1 0 t n @.} 4.3.0.8.t.w.(.[.J.V.=.*.~.J.V.J.V.V.c.c.",
"V.V.V.V.V.V.V.V.V.V.V.V.V.V.V.V.R.w.r.r.w.c.J.D.R.w.w._.J.V.w.t.J.M.U.V.c.0.@.X.-.5.a.w.w.8.=.~.a.w.(.b.J.V.=.V.V.J.J.J.V.V.R.R.",
"V.V.V.V.V.V.V.V.V.V.V.V.V.V.V.c.R.R.R.R.w.R.V.D.M.=.w.V.J.J.R.R.~.J.J.V.V.=.2.2.8.r.J.D.n.V.=.=.=.r.R.R.V.=.V.V.'.n.R.R.R.r.R.'.",
"V.V.V.V.V.V.V.V.V.V.V.V.V.V.V.V.R.'.R.R.c.c.D.D.V.V.V.V.J.n.'.R.V.~.~.V.V.V.=.=.V.J.T.T.J.V.V.=.c.V.V.w.w.=.V.V.'.R.R.w.w.w.W.R.",
"V.V.V.V.V.V.V.V.V.V.V.V.V.V.V.c.J.J.J.J.V.J.D.V.V.V.V.V.n.R.w.V.'.R.w.8.=.M.J.V.R.R.J.D.=.w.w.n.D.P.'.W.w.w.V.M.n.n.w.w.8.w.R.'.",
"V.V.V.V.V.V.V.V.V.V.V.V.V.V.V.V.V.J.J.J.V.V.V.V.V.V.R.V.R.V.c.c.R.R.w.w.=.V.D.J.w.R.J.V.=.R.R.V.P.P.'.W.R.w.V.J.c.R.w.w.=.w.R.n.",
"V.V.V.V.V.V.V.V.V.V.V.V.V.V.V.V.=.=.=.V.R.R.'.R.c.R.R.w.V.V.V.=.V.R.w.w.=.V.M.V.V.V.J.J.J.V.V.=.c.=.w.V.J.J.D.D.R.R.R.V.V.M.V.D.",
"V.V.V.V.V.V.V.V.V.V.V.V.V.V.V.=.=.=.r.w.w.R.c.n.w.r.w.R.V.V.=.=.V.n.~.R.w.V.V.D.J.V.c.c.n.V.V.V.=.=.r.V.~.n.J.J.'.R.R.~.V.D.D.V.",
"V.V.V.V.V.V.V.V.V.V.V.V.V.V.V.V.V.V.V.V.R.V.J.V.V.w.~.w.J.J.=.V.J.J.J.V.r.=.D.J.c.R.8.a.w.w.J.D.J.V.w.w.w.R.c.c.R.R.V.=.=.M.V.V.",
"V.V.V.V.V.V.V.V.V.V.V.V.V.V.V.V.J.V.V.V.w.V.D.V.V.=.w.V.J.D.V.r.n.n.D.V.V.V.J.D.c.R.w.a.r.r.D.D.D.~.W.w.w.w.c.'.'.R.~.=.=.=.M.V."
};
