/* XPM */
static char *_5a95ed141504864e42edddbcf752bcaBn8GoUrrfA4nLoEx[] = {
/* columns rows colors chars-per-pixel */
"64 64 176 2 ",
"   c #296944",
".  c #2A6656",
"X  c #2B6B51",
"o  c #2D635D",
"O  c #356B5D",
"+  c #387853",
"@  c #2E5F6E",
"#  c #325D6D",
"$  c #2E5D76",
"%  c #2F5C79",
"&  c #335D74",
"*  c #305778",
"=  c #345C7C",
"-  c #3B5E7A",
";  c #2E6364",
":  c #2F6862",
">  c #2A606C",
",  c #346364",
"<  c #34626B",
"1  c #39696B",
"2  c #3C7167",
"3  c #2E6673",
"4  c #326272",
"5  c #33607A",
"6  c #3F6A7D",
"7  c #41776A",
"8  c #457E6D",
"9  c #5DBE3C",
"0  c #61BF3D",
"q  c #5EC23D",
"w  c #61C13D",
"e  c #5EBE41",
"r  c #5EBB4C",
"t  c #5EB950",
"y  c #62BF42",
"u  c #64B74D",
"i  c #63BD4B",
"p  c #63B654",
"a  c #63BB54",
"s  c #69BA54",
"d  c #64B55B",
"f  c #6AB65D",
"g  c #64BA5B",
"h  c #68B95C",
"j  c #538B72",
"k  c #568C7C",
"l  c #5A9775",
"z  c #5E9A78",
"x  c #5FAF74",
"c  c #65B563",
"v  c #6AB566",
"b  c #66B963",
"n  c #6ABA63",
"m  c #66B46A",
"M  c #69B46B",
"N  c #6DAD74",
"B  c #66A37A",
"V  c #67AE7B",
"C  c #6BAE7E",
"Z  c #66B371",
"A  c #6AB373",
"S  c #67B279",
"D  c #6AB37A",
"F  c #57C040",
"G  c #5EC141",
"H  c #5EC049",
"J  c #60C141",
"K  c #63C14B",
"L  c #67C054",
"P  c #364F8F",
"I  c #2E5882",
"U  c #2C5A8B",
"Y  c #345783",
"T  c #395587",
"R  c #355B83",
"E  c #3A5D82",
"W  c #34558C",
"Q  c #39558E",
"!  c #35598B",
"~  c #395A8D",
"^  c #3A4F9E",
"/  c #365492",
"(  c #395594",
")  c #375A93",
"_  c #395992",
"`  c #37539A",
"'  c #3A529D",
"]  c #356281",
"[  c #3C6787",
"{  c #3F6888",
"}  c #374CA5",
"|  c #3A4EA4",
" . c #374DAA",
".. c #3B4DAB",
"X. c #3354A3",
"o. c #3751A5",
"O. c #3855A3",
"+. c #3D53A6",
"@. c #3A52A4",
"#. c #3750AA",
"$. c #3A51AB",
"%. c #3D51AA",
"&. c #3B46B5",
"*. c #354BB0",
"=. c #374FB3",
"-. c #3A4CB2",
";. c #3C4BB3",
":. c #3D46BB",
">. c #3A44BD",
",. c #3D46BF",
"<. c #3D45BD",
"1. c #3F48BD",
"2. c #3E49BC",
"3. c #3E51B2",
"4. c #416D86",
"5. c #456E8C",
"6. c #4B7C80",
"7. c #487886",
"8. c #414DAE",
"9. c #4254A0",
"0. c #4050AF",
"q. c #4044BF",
"w. c #4146BE",
"e. c #414ABD",
"r. c #424ABC",
"t. c #3D46C1",
"y. c #3E49C2",
"u. c #3F4AC8",
"i. c #4147C1",
"p. c #4147C3",
"a. c #4245C2",
"s. c #4546C2",
"d. c #4347C4",
"f. c #4147C2",
"g. c #4248C2",
"h. c #4449C2",
"j. c #4248C4",
"k. c #424AC3",
"l. c #588985",
"z. c #5F9691",
"x. c #609C82",
"c. c #609394",
"v. c #67A284",
"b. c #69A384",
"n. c #67AB82",
"m. c #6DAD81",
"M. c #6DAB86",
"N. c #6CAC84",
"B. c #67A58C",
"V. c #69A58C",
"C. c #67AD88",
"Z. c #6AAD89",
"A. c #6DAE8A",
"S. c #6BAC8C",
"D. c #6CAC8A",
"F. c #70A885",
"G. c #71AC84",
"H. c #70AD8C",
"J. c #69B181",
"K. c #6CB183",
"L. c #69B18C",
"P. c #71B481",
"I. c #6DA096",
"U. c #6EAA92",
"Y. c #6CA699",
"T. c #6CAA9E",
"R. c #72A596",
"E. c #71AB93",
"W. c #71A49D",
"Q. c #79A69F",
"!. c #71A99E",
"~. c #6DA3A5",
"^. c #6CA2A4",
"/. c #71A6A0",
"(. c #75A1AE",
"). c #7A9EC2",
/* pixels */
"J G J J w J J w J J J J w J G q q G w y y J J G G J w 0 J J G q w w q q w q q q w 0 w w y H q q q J J G J e J J J q J w q w q q ",
"J w J w J J J G w J J q J J J J H J w J y J y G G J w w y J q G w 0 q q q G G w y w w w J J q w w J J J J J J J J J J J J J q G ",
"J J J J q J J w J w J J J G J J J J J w w J H G H G w w y J J J J y J G G G J J y J J J J J w w w w w J J w J w J J J J J J J w ",
"w J J q J J J J G J J J w J w J J J J J w J J G G y J y J J J J J J H J q G y y J J J J y J 0 w w q w J J J q w w J r J J G J w ",
"J J J J q J J G J J J J J J w q q q w G w w w w w w w w y J G G w w J 0 w q w w G G G J G J J 0 w q J J J G q w J J J G K J G w ",
"w G J J J J w J J J w G J J J w q q J J w w w w w w w w y J G G G w J w w w w w G G J w J G y q G G J G J J w w J G y H H J J w ",
"J J w w J J G J q J J w G J J G q q q J J J J J 0 w J J H G q q G J J 0 q w w w H G w w J G G H G y J i J w w w w w J y G y J w ",
"J J G J w J w J J J J J w J w G G q w w J J J J J y y y y G q q G H J J J y J y a a s u a i H G G J H J y H q w w q w J J J J q ",
"G J w J w J w G w J J J J J J G H q q J w J G G J J 0 w J w q w G G q w J J J a A A.N.C M h i q w J J J K e J w w w w q w J w J ",
"w J J J J J J J G J w J J q w G G K J J 9 w G G J J J J J J q w G G q q w y 0 h . & = # # l n i w J J 9 K J J J q w w w J J J G ",
"J J w G G J J J w J J J w J J J e J 9 w J J G F G G 9 w J K J y q H G G J J J m % %...| +.Y j v y w w w q y J G w w J J J J J J ",
"w J J J J w w J J J w G J G J J y J 0 w J J G J q G w w 0 w y J J G H G J J w M ] *.2.i.i...R D.s w 9 w w e K J J J J G J J G y ",
"G J J J J J J J J G J J J w G J J w w w w J w 0 J J J e J J K J y J w w w J J b z.' ..s.s.w.%.% m y y w w w 9 y H i y J w J J y ",
"J w w J w J w G J w J w J J J w J w w q J 0 u s v b i e q q J w J J w w q G J g Z.= | h.s.s.>.` J.i K J w w w w J J G J q w J G ",
"G J G J J G J w w J G J J J J J G J w w J u f B 3 3 m G q G J J y y w w q G G t Z : ' <.d.d.y./ L.g r J w w w w J J q q w w J J ",
"w J w J w J J G J J J w J J q J J G q J y n F.& X.U Z J q w J J J J 0 w q q q K g S./ t.d.d.t.' . m g y w w w w G J G G q w w G ",
"J J J G J J w w G J y q J w J J G q q y h G.- ' @.% m J G G G K J K J J w w q G i S / w.i.i.e.| 3 J.g G J 0 J G w w G J 0 w J q ",
"J J J J J J w G y J G J J w J q q J w u A 1 %.-./ ~.b e J e J 9 J J G q q w q q q M _ k.i.s.i.%.* Z.g J w y G G q w y G J w q q ",
"J J J J J G J J H J J q J J J G q q e n Y.~ ....R H.p w J J G w w w J K w w q J G A W y.t.y.u. .$ N.g q J J G G w J J y J w G G ",
"J q J J J J J J y J w w J G w G q G i A 5 $.;.| # D s w y J w J w w J J w w 9 J 9 A / y.y.t.t.#.& A.a J J w G q w w H J J w q G ",
"w w J J w q w w J q w J J J J q H K f M.! -.2.' Q.M u 0 J J G G q J 0 y y K e 0 y N Q e.k.y.y.%.& C a y y q q q w J y G w J J J ",
"q J J G w w w w w w w J y J J q q a N , o.2.2.' # F.f K K J J G G y K u g c m A N R.' t.y.>.k.@.& A.a w y J w q 0 w H y w q G y ",
"w w J J w q q w H J w w G J w q G b R.T ;.t.-.-.%.Y b.c i 0 J J q K f A V Y.4.W Q 9.r.i.y.2.<.8.= R.g w w G w q w J J G w q J J ",
"w J J J J w w w y J q w w G w G H Z - | e.y.2.2.y...& D.c y J J q a N.o & Y ..r.w.w.i.h.<.y.s.8.( W.f q 0 J q J w 0 J G J w G y ",
"G J J J J J J H e w w 9 J J K r a K.Q r.,.y.y.y.y.&.%.R K.s e w w c @ ' | 0.<.2.2.2.h.w.w.w.k.2.O.7.b w J G J e y w w q G J J y ",
"J J J J J G J y q w w w J e K a m 2 ^ e.2.-. .$.;.y.<.@., A a J w v 6 | ;.y.y.k.2.k.:.i.w.k.y.2.%.[ M w w J G J y w w q G q y w ",
"J J J G w w w w w w 9 w J y y a G.& ..r.} ( ).Y ..k.j.;.! c.f y J s A.& $.,.k.t.t.y.i.i.y.u.<.2.2.! M q w q G J w w w q G q w J ",
"J J w J w J q w w J J J 0 J J b l.( ;.-.Q (.E.1 ' <.k.&.%.* P.p y K c z = o.......-.k.t.u.y.2.2.2.~ A q J q H y y w w q G G w y ",
"G w J w J J G w w J y y w w q M R ;.t.#.4 C v C Q ;.y.k.&.@.; S a q i n N.. # 5 % ~ ..i.d.t.r.e.2.) Z q J q G e y w w q q G y y ",
"w w G J y J w J G G J w 0 y L n.( u.t.' b.d i c 7.' -.y.k...W !.g K J y a M J.C.A.~.@.w.d.j.h.:.,.! A J J G G J y 0 w q q G J J ",
"J J J J H G w w y K J 9 w L Z ; o.t.k.( D y y a n.4 %.k.<.r.@.4.m G w 0 i i t g g K.( r.t.t.t.y.2.~ M G y G J J J 0 w q q q e y ",
"J G w J J w w J J r w w J f ~.U ..;...= v w e a b x./ 2.e.y.2.R A G w w w w q H J M E 8.e.i.y.2...5.m q q w K J y y w G q q H J ",
"w J G G J y y J J q q w y M R =.2.;.W /.f w w J a Z % o.2.i.w.( N K J G w w w J J c 6.( ;.<.k.-.W z.c J q q G J J J y w q q G G ",
"w w q G H J y y G q q K u A.` y.,.o.4 V a 9 J J q g U.= @.2.j.( B a J q w J J J G g Y.R ..k.d.%.R B.g J q w e J J J J J w q G q ",
"w J G q q J J J 9 H J t A # +.y.2.( 8 b i G w q J K p K.= } &.| , S t J J 0 J J G g E.Y ;.y.i.| = E.g J J w J G K J y 0 w q G G ",
"w 0 w q q q w J J G G a A.# | h.&._ K.a G q K 0 0 w w d B.] @.O.$ L.g H y J J J G g V.R %.t.k...& H.g w J J J w G G J J w w G G ",
"y 0 J J q q w w 9 J J a A.& +.&.+.= M y G G G 0 w 0 w K d F.R W > L.f J J 0 0 w q s A.& } y.:.+.& M.a 0 J 0 G q q w y J w w G y ",
"0 y i J G q w w K J w a A.% | %.Y R.h w G H J y w K e y J h E.; X D a i K 0 w w q a N.@ %.k.,.| & M.h J J J G q q q H J w w y G ",
"w w J w q q J J e J J g S.% #.` k v i w J J K J J 9 J e K i g d s u y 0 0 K w w G g A.& %.<.<.0.= D.p J y H q G q q J y J w J y ",
"w w J J q w J J y K J a S : I & Z K y w J y J 0 y w w J G w q w w w w w y J J w G g N.& | k.<.%.= H.d w J y J 9 q q G y w q J y ",
"w w G G H J J J w w w J a M + N.c H J J J J w 0 J y w w J G q q w y w J w J y w q a N.= ..i.i...R S.g J y e J q q q w J J J J J ",
"w w G G H G J w w w w K y i h g r H J J w J w w J w w 0 J q q G J J w J G J w J w a N.= ..d.i...= Z.g J y J J G q q G J J J J J ",
"q G q G J J w w w w w 9 y J J e G G J J w q q q K H J w J G y J G q q G G y J q G g C.$ ..s.k...& C.g q J J y G q q q w G J J w ",
"q G G G J w w w w w w w J J q 9 q q J J q q q G J J J G G q y e J q G G G G J w G t N.< %.i.k.@.< S a G J y J J q q w w G J J w ",
"w G J H y J w J H J 9 J q q J q w w J y w q q q w J J G q w J K w G G H G G w w q r M 2 ' :.y.' O m a q w y J w G G J J G G w w ",
"y J J y J J y G y J J 9 q q q w w w y y w q q G w w J J q w K J w G G H H J w w q K h F.( k.2.` H.a e G J K 0 K w q G w H G J w ",
"w w y J w q H G J 9 J J J y J H w w y y w w G G J J w q q q G J q w w J J y w w G H i N ( >.2./ N i J G 9 J w 0 J G J J G G J w ",
"w 0 J w w w G G w w K J e J e J G G J y 0 0 J J J w q q q q q w w w w G J J q w G J 0 A ( k.2.W D J G G J J 0 J J G J J G G J q ",
"y J w J w w J J J J w J J J J G G w J J w J G J J J w q G G w w w w q q q w y J J J w D P k.2.W M J J q J G J J J J J w J w J J ",
"w J J J J w G J J J G J J J w J J J J J J J w J J J J J w G J J w J G q w q G H y w q A ( d.y.! A w G J w J w J J q J J G J J J ",
"J J w J J G J J J J J J J J J J J w J J w G w J w G J J w J J G y J H q q w G y J w J Z / <.k.! Z w J w J J J w J w J w J J q J ",
"J w G J J w J J q J J w J q J J J G w J J J J J J J J w J J J J y J G H w w J J 0 w G M - ..@.] m J J J w G J J J J J G J w J J ",
"J w w J J G J q w G J w w J G w J w G w J w G w J J J J w J J J J J e J w w w J J w G g W.= = Y.g G G w J J J J w J w G G J J w ",
"J G J J J w J J J J J J J J J J J J J J J J J J w J J J G J J w J y J J w w w w w w G g F., o H.s J J J J J J q G J J J w J G J ",
"J J J J J w G w J J G J J w J w G w w J J J J J G w J q w J w J G q G G q w y J w q G s A.o o Z.g q G w w J w J J J J J G w J w ",
"w J J q J J J J G w w J J J G J J J J J J q w G J J J J J J G J G G G G q w G J w G G t D     A a G J J G J J J J w w J J J J J ",
"G w J w J J G J J J w J J w G J G w J w J G J J J J J J J J G J q w y J y y J J J J G G L L s a J J w J J q J J J J J w G w J J ",
"J J J G J w J w J w G J J J w J J J J J w J J w G J w G w J w J w w J J J J J y J G G G J J J J J J G J J J J w G w J J J J q J ",
"J w J J w G J J J G J J J J J J J w q J J J q J w J J w J G J J q q G G y J J i J q q w J y y J J J w J J w G J J J J J J J J J ",
"J J J w J J J w J w J w J J q J J J J J J J J J J J J J J w J w G q q G G H J G J w w J K y J 0 J J G J J J J w J w G w G w J J ",
"J J J w J w J G w G w J w G w J w G J J J J G w w w J J w J J q w w w w w w w G G G G G q G w J w G w J J G w J w J w G w J J w ",
"w G J J J J J J J J J J J J J J J J w J J w J J G J J J J G J w 0 w w w w 0 w w G G G G q q q J J J J J J J J J J J J J J J J G ",
"w J G w J q w J J J J J J J w J J J J w J w J J J J w G w J J J J J q J J w w w w J w J G G J J J w J w J w J J G J w J J q w J ",
"G J J J J J J G J w q J J w J G w G J J J G J w G w J J J J J G J y y J G w w q q w w J J G J J J J J G J J q J J w J J J J J J "
};
